<svg version="1" xmlns="http://www.w3.org/2000/svg" width="2560" height="2560" viewBox="0 0 1920.000000 1920.000000"><path d="M893.5 63.1c-1.6.5-6.7 1.6-11.2 2.5-7.3 1.3-14.9 4.7-20.6 9.2-.7.5-2.9 1.3-5.1 1.6-9.7 1.8-14.2 6.8-7.1 8.2 5.5 1 12-.4 15.9-3.5 1.9-1.6 5.7-3.4 8.3-4.1 2.6-.7 5.3-1.6 5.8-2 .6-.4 4.6-1.3 9-2 9.3-1.4 13.2-2.9 16-6 1.9-2.1 1.9-2.2 0-3.6-2.1-1.6-6.5-1.7-11-.3zM927.8 62.7c-1 .2-1.5 1-1.1 1.9.6 1.7 9.8 2 10.9.3 1.4-2.3-4.5-3.6-9.8-2.2zM952.8 72.2c-3.7 1.3-3.5 2.4.6 3.2 4.4.8 9.1-1.1 7.5-3.1-1.3-1.5-4.2-1.6-8.1-.1zM896.9 80.6c-1.1 1.4-1 1.9 1 3.5 1.3 1.1 3.1 1.9 4.2 1.9 2.5 0 7.4-4.4 6.5-5.8-1.1-1.8-10.1-1.5-11.7.4zM988.7 79.7c-1.3 1.3-.7 2.1 2.4 3.2 4 1.4 10.9 1.4 10.9.1 0-2.6-11.3-5.4-13.3-3.3zM818 82.1c0 .5-1.7 1.7-3.7 2.5-7.1 2.8-14.1 6.6-15.8 8.4-1 1.1-3.4 2.5-5.4 3.1-2 .7-5 2.4-6.8 3.9-1.7 1.6-4.6 3.1-6.3 3.5-1.7.4-3.4 1.3-3.7 2-.2.8-2.1 1.9-4.1 2.6-2.1.6-4.9 2-6.4 3.1-1.5 1-6.4 3.7-10.9 5.9-10.3 5.1-19.1 11.5-18.7 13.6.6 2.9 3.4 3.8 7.3 2.4 2-.7 6.1-1.5 9.3-1.8 5.7-.6 5.7-.6 15.8-10.8 12-12.2 13.4-13.1 17.2-11.3 2 1 2.8 2.2 3 4.6.4 3.9-.5 5.2-7.7 10.5l-5.4 4 2.2 1.9c3.5 2.7 8.8 2.4 11.4-.8 7.3-8.8 20.9-20.8 29.4-25.9 3.2-1.9 7.1-4.6 8.6-5.9 1.6-1.4 5.3-4.1 8.3-6.2 3-2 5.4-4.3 5.4-5 0-2.2-3-3.1-7.4-2.2-10.4 2.2-11.4 2.2-12 0-.7-2.1-3.6-3.9-3.6-2.1zM873.8 85.3c-2.7 1-5.4 5.2-3.9 6.1.8.5 11.9-2.6 14-3.9.9-.5.9-1 0-2.1-1.3-1.6-6.2-1.7-10.1-.1zM1005 85.8c0 1.6 2.3 2.9 7.8 4.2 2.8.6 5.2 1.6 5.2 2 0 1.2 6.8 3.3 8.1 2.4.8-.5.4-1.3-1.2-2.5-1.3-1-2.8-1.9-3.3-1.9-.6 0-2-1-3.3-2.2-2.5-2.3-13.3-4-13.3-2zM860.7 92.6c-1.1 1.1.3 2.4 1.8 1.8.8-.4 1.2-1 .9-1.5-.6-1.1-1.8-1.2-2.7-.3zM848.5 96.7c-1.1.3-3.1 1.6-4.4 2.9-1.4 1.4-3.6 2.4-5.2 2.4-3.2 0-10.1 5.8-29 24.1-8.5 8.2-10.9 11.1-10.9 13.2 0 3.1 1 3.3 4.8 1 2.4-1.5 12.2-10.9 12.2-11.8 0-.6 8.4-8.4 13.9-12.9 6.2-5.2 17.9-11.6 21-11.6 2.7 0 7.3-4.4 6.6-6.2-.6-1.4-5.4-2-9-1.1zM870 109.7c-3.3 1.3-10.1 7.6-9.1 8.6 1.6 1.6 10.5-.3 15.6-3.5 4.6-2.8 4.8-3.1 3-4.4-1.9-1.4-6.7-1.7-9.5-.7zM1054.3 115.7c-.8 2.1 3 5.3 6.3 5.3 3 0 3.1-2.3.4-5-2.4-2.4-5.8-2.6-6.7-.3zM846.4 123.5c-.9 1.4-2.1 2.5-2.6 2.5-2 0-13.1 8.6-21.5 16.6-4.4 4.3-5.5 7.7-2.7 8.8 2.7 1 3.1.8 10.7-6.9 4.2-4.1 7.9-7.5 8.4-7.5s2.9-1.8 5.4-4c2.4-2.3 5.8-4.8 7.4-5.7 4.1-2.1 6.6-4.4 5.9-5.4-.3-.5-2.5-.9-4.9-.9-3.6 0-4.8.5-6.1 2.5zM1065 123c2 1.3 5 1.3 5 0 0-.6-1.5-1-3.2-1-2.5 0-2.9.3-1.8 1zM912.1 130.6c-1.8.8-4.3 1.1-5.6.8-3.1-.8-16.5 2-21.2 4.4-2.1 1.1-5.5 2.2-7.7 2.6-2.1.4-5.9 1.8-8.5 3.1-2.5 1.2-8.6 4.2-13.6 6.6-11 5.2-19.5 10.5-19.5 12.2 0 2.6 2 4.1 5.2 4.1 3.5 0 8.7-2.3 18.3-7.9 8.3-4.9 17-8.7 29.6-13.1 3.7-1.2 8.6-3.2 11-4.3 2.3-1.2 5.5-2.1 6.9-2.1 2.7 0 15.5-5.8 14.7-6.7-1.2-1.1-6.5-1-9.6.3zM729 136.1c0 .5.5.7 1 .4.6-.3 1-.8 1-1.1 0-.2-.4-.4-1-.4-.5 0-1 .5-1 1.1zM679 149c-3 .4-6.8 1.3-8.5 1.9-1.6.7-4.6.9-6.6.6-2.1-.4-11.5-.1-21 .5-15.2 1-18.2 1.5-24.3 4-3.9 1.5-8.9 3.4-11.1 4.1-2.2.6-6.2 2.4-9 3.9-2.7 1.5-6.1 3-7.5 3.3-1.4.4-6.9 3.5-12.1 6.9-5.3 3.5-11.5 7.4-13.8 8.8-6.8 4-15.1 11.3-15.1 13.2 0 2.7 5.6 2.3 9.4-.5 12.6-9.6 37.4-21.2 52.7-24.6 4.6-1.1 12-2.8 16.4-4 10.5-2.7 11.6-2.7 15.1 1 2.6 2.8 3.3 3 7.2 2.5 2.3-.3 6.1-1.5 8.4-2.7 6.8-3.5 23.4-6.1 41.9-6.6 16.6-.5 16.6-.5 19.5 2 3.7 3.3 2.6 4.5-5.5 5.8-3.4.5-7.9 1.8-9.9 2.9-2 1.1-5.2 2.3-7 2.6-1.8.4-4.5 1.8-6 3.3-1.5 1.5-3.6 3.1-4.7 3.5-1.4.6-1.6 1-.7 1.3.8.3 3-.2 5-1 2.1-.9 6.1-2.1 9.1-2.7 2.9-.5 6.6-1.9 8.1-3 1.6-1.1 3.9-2 5.3-2 1.3 0 4.1-.7 6.1-1.5 2-.9 4.1-1.3 4.7-.9.6.3 4 0 7.5-.6 4.9-.9 8-1 12.2-.2 3.1.6 9.2 1.4 13.5 1.6 8.5.6 9.5 0 8.3-4.8-.7-2.8-4-4.1-13.1-5-4.5-.5-6.9-1.4-9.5-3.5-4-3.2-13.4-5.7-27.5-7.2-4.9-.5-13.1-1.6-18.1-2.4-9.7-1.6-11-1.6-19.4-.5z"/><path d="M636.5 175.7c-1.1.3-2.3 1-2.7 1.6-.4.7-2.9 1.8-5.5 2.7-5.4 1.7-6.5 4.3-2.1 4.8 1.9.2 3.7-.7 6.5-3.1 2.1-1.9 4.7-3.6 5.7-3.8 1.1-.2 1.9-.8 1.9-1.4-.2-1.2-1.2-1.4-3.8-.8zM775.5 175.9c-2.7.4-6.1 1.3-7.4 2-1.3.7-6.3 2.4-11.1 3.7-8.2 2.2-14.6 4.9-18 7.9-.8.7-3.4 2.2-5.8 3.4-3 1.5-4.2 2.7-4 3.9.5 2.5 7 1.8 12.2-1.2 2.3-1.3 7.9-3.1 12.6-4.1 4.7-.9 9.9-2 11.5-2.6 1.7-.5 6.5-1.3 10.8-1.9 9.1-1.1 11.4-2.2 12.8-5.7 1.8-4.9-3.2-6.9-13.6-5.4zM603.7 189.5c-6.2 3.2-7.5 6.5-2.6 6.5 2.3 0 4.1-1 6.5-3.5 1.9-1.8 3.4-3.6 3.4-4 0-1-4.5-.5-7.3 1zM723.8 199.7c-1.6.4-2.6 3.3-1.2 3.3 1.3 0 4.4-2.1 4.4-3 0-1-.3-1.1-3.2-.3zM1134.3 308c-3.9 1.6-2.6 2.1 4.5 2 7.8-.2 10.5-.8 9.7-2.1-.8-1.1-11.3-1.1-14.2.1zM1108.4 315.9c-3.9 2-9.8 4.3-13 5-12.2 2.7-22.5 7.2-23.7 10.6-.3.7-2.4 1.9-4.6 2.6-2.2.7-4.8 2.4-6 4-1.5 2-3 2.9-5 2.9-2.3 0-4.1 1.4-8.7 6.5-6 6.6-11.7 10.7-16.6 11.9-1.7.4-5.1 3.6-9.4 8.8-3.7 4.6-7.8 9.3-9.1 10.6-1.3 1.3-2.3 3.4-2.3 4.7 0 3.2-3.3 4.9-8.2 4.2-4.7-.6-6.3 1.5-5.3 7.4.6 3.5.5 3.9-1.4 3.9-1.2 0-2.1.4-2.1.8 0 .5-1.4.7-3 .4-4.7-.7-7.8 2-8.2 7-.3 4.2-.4 4.3-4.1 4.6-2.5.2-4.5-.3-6.2-1.6-2.1-1.7-3.2-1.8-6.5-1.1-2.5.6-4.8.6-5.9 0-2.2-1.2-10.2.6-11.4 2.6-.9 1.5-11.7 1.9-11.7.4 0-.5-3.9-1.2-8.7-1.5-4.9-.4-11.4-.8-14.5-1-5.1-.4-6-.1-8.3 2.1-2.4 2.5-2.8 2.6-8.8 1.6-6.7-1.1-8.6-1-21.7.2-4.7.4-9.6.9-10.9.9-1.4.1-2.6.6-2.8 1.1-.2.6-3.6.9-7.9.7-5.3-.3-10.3.3-16.3 1.7-4.7 1.1-11 2.5-14 3.1-3.3.6-5.9 1.7-6.7 2.9-.9 1.3-3 2-7.1 2.3-4.2.4-7.9 1.7-13.1 4.4-3.9 2.2-7.2 4.3-7.2 4.8 0 1.6 10.1-.1 13-2.3 1.9-1.3 5.6-2.5 10.5-3.2 4.2-.5 9.7-1.7 12.3-2.5 3-1 11.3-1.8 22.7-2.2 9.9-.4 18.6-1.1 19.2-1.5.7-.5 6.3-1 12.5-1.3 11.1-.4 16.6-1.7 24.5-5.6l4.2-2.1 4.2 2.2c3.3 1.8 5.2 2.1 8.8 1.7 7-.9 25.6-1 34.6-.1 5.6.5 8.5 1.2 9.5 2.4.8 1 4.9 3 9 4.5 13.3 5 20.4 7.7 25 9.5 2.5 1 6.2 2.2 8.2 2.5 2 .4 5.1 2 6.8 3.6 1.8 1.7 3.7 3 4.4 3 .6 0 2.7 1 4.6 2.3 1.9 1.3 5.1 2.9 7 3.7 1.9.8 6 3.3 9.1 5.7 5 3.9 10.2 6.3 13.6 6.3.6 0 2.6-2.8 4.3-6.2 2.8-5.4 3.1-7 2.6-11.3-.5-4.6-.3-5.2 2.6-8.2 2.9-3 3.1-3.5 1.6-4.9-2.3-2.4-5.5-.9-6.8 3.1-1.4 4.2-1.9 4.3-5 1-1.3-1.4-3.4-2.5-4.7-2.5-1.3 0-2.3-.6-2.3-1.3 0-.7-.7-2.3-1.6-3.5-2.4-3.5-4.1-1.3-3.7 4.5.3 3.2-.1 5.5-1.1 6.8-2 2.8-3.3 1.1-3.9-5.2-.4-4.3-.2-5.7 1.5-7.9 2.6-3.3 8.8-15.2 8.8-16.9 0-.7 1.6-3.2 3.5-5.5s3.5-4.6 3.5-5.1c0-1.5 8-12.9 9-12.9.5 0 2.2-1.9 3.9-4.3 1.6-2.3 5.1-6.3 7.8-8.8 16.1-15.5 18.1-17.1 27-21.5 5.1-2.5 9.9-5.3 10.5-6.3.7-1 2.4-2.4 3.8-3.1 1.4-.7 3.4-2.1 4.5-3 1.1-1 4-2.4 6.5-3 2.5-.7 5.5-2.2 6.7-3.4 1.2-1.3 4.1-2.8 6.3-3.5 2.3-.7 4-1.8 4-2.6 0-2.4-8-1.9-14.2 1-2.9 1.4-5.9 2.5-6.7 2.5-.8 0-2.8 1.1-4.5 2.3-1.7 1.3-4.6 2.9-6.5 3.5-4 1.4-12.8 7.1-15.4 10-1 1.1-3.2 2.6-4.8 3.2-1.6.7-2.9 1.6-2.9 2.1 0 .4-2 2.2-4.5 3.9-6.4 4.4-26.5 22.2-26.5 23.5 0 .3-2.9 3.9-6.5 8s-6.5 8.1-6.5 8.8c0 .7-2.2 3.5-5 6.2-2.7 2.7-5 5.7-5 6.5 0 .9-1.2 2.7-2.6 4.1-1.4 1.3-3.4 3.8-4.5 5.6-1.1 1.7-2.9 3.5-4 3.8-1.1.4-2.2 1.9-2.6 3.6-.7 3.6-2.5 5.1-5.5 4.7-2.5-.3-2.6-1-1.4-7.3 1.2-6.5 2.7-10.9 4.4-12.8.8-.9 1.1-1.7.7-1.7-.4 0 0-.9.9-1.9 1-1.1 2.4-4 3.1-6.5.8-2.5 2.5-5.7 4-7.1 1.4-1.4 2.5-3.2 2.5-3.9 0-.7 1.1-2.5 2.5-4s3.2-4.1 4.2-5.9c2.1-4.1 17.3-18.9 25.2-24.5 4.6-3.3 6.1-4.9 6.1-6.8 0-1.9.6-2.6 2.9-3 1.8-.4 4.2-2.2 6.1-4.5 1.7-2.1 3.9-3.9 4.9-3.9 1 0 4.1-1.5 6.7-3.3 6-4 9.8-5.7 12.8-5.7 1.4 0 3-1 4-2.5.9-1.4 2.6-2.5 3.7-2.5 1.2 0 3.3-.8 4.7-1.9 1.5-1 4.7-2.2 7.2-2.6 4.7-.7 9-2.9 9-4.5 0-.6-2.6-1-5.7-.9-4.7 0-7.2.8-12.9 3.8zM1261.5 322c-1.6.4-5.4.8-8.2.9-4.3.1-5.3.4-5.3 1.8-.1 3.1-3.5 6.7-5.9 6-1.1-.3-2.1-.1-2.1.5 0 .7-3.1.8-9 .3-6.3-.5-9-.4-9 .4 0 .6 1.2 1.4 2.6 1.7 3 .8 5.2 5.3 3.2 6.6-1.7 1.1-7.8 2.8-10 2.8-1.1 0-1.8.8-1.8 1.8 0 2.2-5.6 4.2-11.8 4.2-3 0-4.6.6-6.3 2.5-2.6 2.7-4.5 3.2-5.2 1.2-.3-.7-.6-.5-.6.5-.1 1-.8 1.8-1.6 1.8-2 0-1.9 1.7.3 2.8 2.4 1.2 6.1.1 7.5-2.3.7-1.1 1.7-2.1 2.2-2.2.6 0 3.7-.4 7-.7 3.3-.3 6.1-1 6.3-1.6.2-.5 1.4-1 2.7-1 1.2 0 2.5-.6 2.8-1.4.3-.8 3.4-1.9 7.7-2.6 5.9-1 8.7-.9 16 .3 8 1.3 9.6 1.3 15.2 0 5.6-1.4 12.7-5.3 13.6-7.5.6-1.3 3.9-.9 5.1.6.6.7.9 2.1.5 3-.4 1.1-.1 1.6 1 1.6.9 0 1.6.7 1.6 1.5 0 1 1 1.5 3.3 1.5 3.1 0 13.7 4.3 13.7 5.6 0 .3-.6.2-1.2-.1-.7-.4-.5 0 .4.7 1.2 1 4.2 1.4 9.9 1.3 7.8-.1 8.3-.3 10.5-3 2.1-2.7 2.9-2.9 8.9-3 6.5-.1 9.1-1.1 7.7-3-.9-1.3-8.9-6.5-10-6.5-.5 0-2.9-1.3-5.3-3-2.4-1.6-6-3.3-7.9-3.6-4.3-.8-9-3.1-9-4.4 0-1.3-5.6-1.3-8.1 0-1.3.7-1.9.7-1.9 0 0-.5-2.2-1-4.9-1-3.4 0-5.1-.4-5.5-1.5-.3-.8-1.5-1.5-2.6-1.5-1.2 0-1.9-.4-1.6-.9 1.2-1.9-8.7-2.7-14.9-1.1zm-8.7 16.8c.3 1.8-.1 2.2-2.2 2.2-3.1 0-4.2-1.6-2.5-3.6 1.7-2.1 4.3-1.3 4.7 1.4zm55.2 1.2c.6 1.1 1.7 2 2.5 2 2 0 4.8 3.1 3.7 4.2-.5.5-3.6.8-6.8.6-5.7-.3-5.9-.4-5.7-3 .3-5.1 4.3-7.5 6.3-3.8zM1199.2 337c-2 3.2-1.4 4 3.1 4 6-.1 10.3-3.8 6.1-5.4-3.4-1.3-7.9-.6-9.2 1.4zM1191.2 340.1c.2.7 1 1.5 1.7 1.7.8.3 1.2-.1.9-.9-.2-.7-1-1.5-1.7-1.7-.8-.3-1.2.1-.9.9zM1167.5 343.9c.3.6-.6 1.3-2 1.7-1.5.4-3 1.7-3.5 2.9-.5 1.3-2.1 2.6-3.7 3-1.5.3-3.4 1.2-4.1 1.8-.8.6-2.1 1.2-2.9 1.3-3.3.5-4.2 1.5-5.3 5.4-.7 2.6-1.9 4.4-3.3 5-1.2.5-3.7 1.4-5.5 2.2-1.8.7-3.5 2-3.7 2.9-.3.9-1.5 1.9-2.6 2.2-1.2.3-1.8 1-1.4 1.6.3.6 0 1.1-.7 1.1-.8.1-.5.7.7 1.6 1.1.8 2.9 1.3 4.1 1.1 1.1-.2 2.6.3 3.3 1.1 1.2 1.2 1 1.3-1 .7-2.1-.7-2.2-.6-1.1.8 1.1 1.3.8 1.7-2.1 2.7-3.5 1.1-4.7 3-4.7 7.6 0 2.7 2.4 3.8 4 1.8.7-.8 2.2-1.4 3.5-1.4 2.7 0 5.5-2.9 5.5-5.7 0-1.4 1.3-2.8 4-4.2 3.8-2 7-1.9 7 .1s4.5.3 4.8-1.9c.2-1.3 1.4-3.1 2.8-4.2 1.3-1 2.4-2.6 2.4-3.5 0-1.9 1.6-2.1 2.4-.4.3.9.8.8 1.6-.5.8-1.2 1.8-1.6 3.1-1.2 2.3.8 8.9-1.2 8.9-2.6 0-2.8-5.1-5.1-6.5-2.9-.9 1.5-3.5 1.2-3.5-.4 0-.8.8-1.7 1.8-2.1 1.6-.6 1.6-.7-.1-2-1.8-1.3-1.6-1.6 2.5-4.3 4.9-3.4 8.8-7.1 8.8-8.4 0-.4-1.2-.8-2.6-.8-1.7 0-2.4-.4-2.1-1.3.3-.8-1.1-1.3-4.5-1.5-3.2-.2-4.7.1-4.3.7zm-15.7 25.9c.3 2 0 2.3-2 2-1.5-.2-2.4-1.1-2.6-2.6-.3-2 0-2.3 2-2 1.5.2 2.4 1.1 2.6 2.6zm-8.1 6.8c-.3.3-1.2.4-1.9.1-.8-.3-.5-.6.6-.6 1.1-.1 1.7.2 1.3.5zM1141.4 350.2c-.4.6-.2 1.4.4 1.6 1.9.6 2.6.3 2.8-1.3.3-1.8-2.2-2-3.2-.3z"/><path d="M1273.8 349.7c.6.2 1.8.2 2.5 0 .6-.3.1-.5-1.3-.5-1.4 0-1.9.2-1.2.5zM1329.3 355.4c-1.9 2.2-1.7 2.5 2.7 3.2 2.2.4 4 1.1 4 1.6s.4.7.8.4c1.9-1.1 9.8 1.6 11.8 4.1 2.2 2.8 5.9 4 6.9 2.2.8-1.3-3.9-8.3-6.9-10.3-1.3-.8-5.8-1.7-10.2-2.1-6.3-.4-8.1-.3-9.1.9zM1313.9 360c-.1.5-.2 1.5-.3 2.1-.1.6 1.3 1.6 3 2.4 2.4 1 3.4 1 4.7 0 2.1-1.5 2.1-1.9.1-3.9-1.7-1.8-7.3-2.2-7.5-.6zM1244 363.6c-1.4.3-8.1 1.4-15 2.5-7.1 1.2-13.2 2.7-14.1 3.5-1 .9-4.1 2.8-7 4.2-3 1.6-5.6 3.7-6.1 5.1-.8 2.3-.7 2.3 2.9 1.7 8.8-1.5 19.9-1.7 36.8-.7 18.2 1 24.7 2.4 30.8 6.4 1.5.9 3.1 1.7 3.6 1.7.6 0 2.5 1.3 4.3 2.9 4.5 3.8 7.1 5.1 10.7 5.1 1.9 0 3.1.5 3.1 1.3s2.1 1.9 5.4 2.6c2.9.7 6.1 2 7 3 .9.9 3.5 2.7 5.9 3.9 4.1 2 10 6.9 10.8 8.9.2.5 3.2 3 6.7 5.6 3.4 2.7 6.2 5.2 6.2 5.8 0 .5.3.8.8.7 1.3-.4 5.2 2.3 5.2 3.6 0 .7.9 2.1 2 3.1s2 2.6 2 3.5c0 .9 1.4 3.8 3.1 6.6 1.8 2.7 3.8 6.8 4.6 9.1.8 2.3 2.1 4.7 2.9 5.4.8.6 1.4 1.7 1.4 2.3 0 .7 1.4 4.1 3.1 7.6 2.4 5 3.3 8.6 4 15.8.5 5.2 1.5 12.9 2.2 17.1 1.6 8.5 1.4 33.2-.3 39.1-.5 1.9-1.7 6.4-2.6 10-.8 3.6-3 9-4.7 12-1.7 3-4.2 7.7-5.5 10.3-1.4 2.7-3.1 5.1-3.8 5.4-.8.3-1.4 1.1-1.4 1.9 0 2.1-3.3 8.4-4.3 8.4-.9 0-2.9 2.1-7.9 8.3-1.3 1.5-3 3.5-3.8 4.5-.8 1-2.3 3-3.3 4.5-1.1 1.7-2.6 2.7-4.2 2.7-1.3 0-2.8.6-3.2 1.2-.4.7-1.5 1.7-2.4 2.3-.9.5-5.7 4.3-10.5 8.2-4.9 4-10.1 7.5-11.5 7.8-1.5.4-3.5 1.5-4.5 2.6-.9 1-2.3 1.9-3.1 1.9-.8 0-3.7 1.3-6.6 2.9-5.5 3.1-21.6 8.6-28.2 9.7-2.2.4-5.3 1.3-6.9 2.1-5.3 2.7-21.3 4.2-45.1 4.3-23.5 0-28.1.6-32.5 3.9l-2.4 1.9 4.4 1.2c3.7 1 18.9 7.8 28 12.5 1.4.7 5.9 1.6 10 1.9 4.1.4 11.1 1.4 15.5 2.3 8.7 1.6 17.2 1.3 29-1.1 3.9-.8 11.1-1.9 16.2-2.5 5.3-.6 10.8-1.8 13-2.9 2.1-1.1 5.7-2.5 8.1-3.1 2.3-.7 4.2-1.6 4.2-2.1 0-1.2 3.9-2.5 8.6-2.8 1.2-.1 4.3-2.2 7-4.7s6.9-5.5 9.4-6.8c7.5-3.9 12-6.8 12-7.8 0-.9 3.4-4.6 14.9-16.4 1.6-1.7 4.6-5.7 6.7-9 2.1-3.3 5.7-8.9 8-12.5 2.3-3.6 6.3-11.2 8.9-17 2.6-5.8 5.3-11.6 5.9-13 2.1-4 5.7-15.1 6.8-20.5.5-2.8 1.6-7.8 2.4-11.2 2.5-10.9 2.8-27.4 1-43.8-1-8.3-2.2-16.4-2.7-18-.6-1.7-1.9-6.4-2.9-10.5-1.7-6.9-3.7-11.9-10.5-26.5-1.3-2.8-2.8-6.1-3.4-7.5-6.7-16.1-27.6-39.1-47.6-52.4-16.9-11.3-30.3-16.9-45-18.6-11.1-1.3-28.7-2.1-32.5-1.4zM1329 370.9c0 2.4 1.6 3.6 2.3 1.9.4-1 .8-.9 1.6.2.6.9 1.1 1 1.1.3 0-.6.3-1.8.6-2.7.5-1.3-.1-1.6-2.5-1.6s-3.1.4-3.1 1.9zM1347 373c0 .5.5 1 1.1 1 .5 0 .7-.5.4-1-.3-.6-.8-1-1.1-1-.2 0-.4.4-.4 1zM1366 379c0 .5.5 1 1 1 1.8 0 1.1 4-.7 4-1.6.1-1.6.2.1 1.5 1.1.8 2.7 1.5 3.6 1.5.9 0 2.8 1.6 4.2 3.5 2.2 3.1 2.7 3.4 3.8 2 .7-.8 1.9-1.5 2.6-1.5.8 0 1.4-1 1.4-2.5s-.6-2.5-1.4-2.5c-.7 0-1.9-.6-2.5-1.4-.6-.7-2.5-1.6-4.1-1.9-1.6-.4-3.9-1.6-5-2.7-2.2-2.2-3-2.5-3-1zM1116.9 386.7c-.7 6.2-.3 7.8 1.9 8.1 1.3.2 2.6 1.1 2.8 2 .3.9 1 2.5 1.5 3.4.7 1.3.4 2.3-1 3.7-1.1 1.1-1.7 2.2-1.4 2.4.2.3-1.4.1-3.7-.4-4.8-1.1-6.7-.2-6.5 3.3.3 5.2 3.4 7.5 6.2 4.7.7-.7 2.5-1.2 4-1.3 2.3-.1 2.8-.5 2.6-2.4-.2-1.3.3-2.2 1.1-2.2.7 0 1.6-1 2-2.3.5-1.7.8-1.9 1.5-.8.5.8 1.1.9 1.5.3.3-.6.1-1.4-.5-1.7-.5-.4-.8-1.3-.5-2 .2-.7-.2-2.4-.9-3.9-1.4-2.7-1.5-2.9-1.5-4.6 0-.6-.5-1-1.1-1-1.3 0-3.9-2.5-3.9-3.8 0-.6-.7-1.3-1.6-1.6-2-.8-2.4-.8-2.5.1z"/><path d="M1113.5 391c-.3.5.1 1 1 1s1.3-.5 1-1c-.3-.6-.8-1-1-1-.2 0-.7.4-1 1zM1107.6 395.4c-2.3 3.6-2.1 7.6.3 7.6 3.4 0 4.7-3.6 2.6-7.6l-1.2-2.4-1.7 2.4zM1071.3 395c-5 2-6.5 8.9-2.7 12.1 3 2.5 10.9-6.4 9.7-10.9-.6-2.3-3.1-2.8-7-1.2zM1184.9 396.4c-.2.2-3.9.9-8.1 1.5-10.1 1.4-21.6 7-28.1 13.7-9.3 9.5-11.4 11.9-13.3 14.9-1 1.6-3.1 4.2-4.6 5.7-1.6 1.4-2.8 3.5-2.8 4.6 0 1-.8 3-1.8 4.3-1.8 2.4-5.2 9.1-5.2 10.4 0 .3-1.1 2.1-2.4 3.8-1.3 1.8-2.9 5.2-3.6 7.7-.6 2.5-1.9 6.7-2.9 9.5-4.3 11.8-6.9 34.5-5.5 46.8.5 4.4 1.3 6.3 3.8 8.9 1.8 1.8 4.5 5.3 6.1 7.7 4.2 6.2 12.1 14.1 18.5 18.4 3 2.1 7.6 5.2 10.2 7 10.4 7 16.6 10.3 24.3 12.7 7.2 2.2 9.6 2.5 23.5 2.4 15.5-.1 15.5-.1 28-4.3 6.8-2.3 14.5-5.4 17-6.9s5.6-3.2 7-3.8c1.4-.6 6-4.3 10.2-8.3 6.2-5.8 8.3-8.7 11.8-15.8 2.3-4.8 5.3-10.1 6.6-11.9 1.3-1.7 2.4-3.4 2.4-3.7 0-.3 1.4-3.5 3-7.1 1.7-3.6 3.4-8.5 3.9-11 1-5.2.4-28.8-.9-33.1-.4-1.7-1.1-4.8-1.5-6.9-.7-4.4-5-15.4-7.7-20.1-1-1.7-2.6-4.6-3.7-6.6-3.3-6-21-21.9-31.3-28.1-16.1-9.7-26.4-12.8-42.1-12.8-5.7 0-10.6.2-10.8.4zm-13.4 34c4.9 2.1 6.9 5.6 6 10.7-1.7 9.7-8 14.6-17.6 13.7-9.3-.9-13.4-8.4-9.2-16.9 2-4.1 4.1-5.8 6.9-5.9 1.2 0 3.7-.7 5.5-1.5 4.3-1.8 4.3-1.8 8.4-.1zm87.5 44.2c.7 1.9.9 4.5.6 5.7-.3 1.2 0 3.9.6 6 1.1 3.7 1.3 3.8 5.5 3.6 4.3-.3 7.2 1.6 7.3 4.8.1 4-7.4 12.8-10.9 12.8-.6 0-2.1-2-3.3-4.4-2.2-4.3-3.3-5.3-7-6.5-2.9-.9-2.4-7.7.8-10.5 2.1-1.8 2.4-2.7 1.9-5.4-.8-3.6-.8-3.3-.6-7 .2-4.2 3.6-3.7 5.1.9zM1386.4 399.9c.3.5-.1 1.4-.9 2.1-2.2 1.8-1.8 3.7 1.1 6.7 1.5 1.5 2.4 3.3 2.1 4.4-.7 2.5 1.7 9 3.6 10 .8.5 2.5 2.9 3.7 5.3 1.3 2.9 2.9 4.6 4.5 5 1.8.5 2.6 1.5 3.1 4.4.3 2 .9 5 1.3 6.7.7 2.7.9 2.5 1.9-3 1-5.4.9-6.2-.8-7.6-1.1-.9-1.7-1.9-1.4-2.2.7-.6-2.8-7.7-3.8-7.7-1.3 0-3.8-5.8-3.8-8.9 0-1.7-.9-4.5-2-6.3-1.1-1.8-2-2.6-2-1.8s-.7.2-1.5-1.4c-.8-1.5-1.5-3.7-1.5-4.7 0-1.3-.7-1.9-2.1-1.9-1.1 0-1.8.4-1.5.9zM1101 406c0 .5.4 1 .9 1 .6 0 1.3-.5 1.6-1 .3-.6-.1-1-.9-1-.9 0-1.6.4-1.6 1zM1099.7 420.7c-.4.3-.7 2.9-.7 5.7 0 4.1-.5 5.7-2.5 7.8-3.5 3.8-3.3 5.9.3 4.9 4.6-1.4 7.2-3.4 7.2-5.7 0-1.5.8-2.4 2.6-2.8 2.2-.6 2.4-.9 1.2-2.3-.7-.9-1.3-1.9-1.2-2.2 0-.3-.8-1.8-1.9-3.4-2-2.7-3.7-3.4-5-2zM778 438.9c-3.4.9-4 4.1-.8 4.1 3.4 0 7.4-3 5.7-4.1-1.6-1-1.4-1-4.9 0zM1082.7 438.7c-1.1 1-.8 6.3.2 6.3 1.2 0 1.6-.8 2.5-4.3.6-2.6-1-3.8-2.7-2zM813.6 441.4c-2.1 1.4-5.5 2.7-7.5 3.1-2 .4-5 1.7-6.7 3-1.7 1.3-4.8 2.8-7.1 3.4-2.2.6-4.8 2-5.8 3.1s-2.3 2-3 2c-.6 0-2.4 1.3-4 3-1.5 1.6-4 3.2-5.5 3.5-2.4.5-6.6 4.1-20 16.8-9.7 9.3-21 22.1-21 23.9 0 1-1 2.9-2.3 4.2-3.2 3.2-8.1 9.6-10.1 13.1-.9 1.6-2.7 4.4-4 6.2-1.3 1.8-2.6 4.9-2.9 7.1-.4 2.1-1.6 4.7-2.7 5.7s-2 2.2-2 2.8c0 .5-1.2 3.2-2.6 6.1-3.2 6.3-10.5 28.5-12.8 38.6-.9 4.1-2.1 9.1-2.6 11.1-.6 2-1 6.5-1.1 10-.2 13.4-2.8 15-10.6 6.4-4.3-4.6-5.6-5.5-8.5-5.5-2.9 0-3.7.6-5.6 3.8-1.8 3.2-2.1 5.7-2.4 16.2-.3 13.4.7 17.7 5.6 26.4 1.3 2.2 3 6.8 3.6 10.1.7 3.3 1.9 7.6 2.7 9.5.8 1.9 1.7 7.1 1.9 11.4.3 6.1.8 8.4 2.3 10 1.1 1.2 2.6 4.7 3.4 7.8.8 3.2 2.7 7.2 4.1 8.9 1.4 1.7 2.6 3.8 2.6 4.8 0 .9.6 2.5 1.4 3.6.7 1.1 1.9 3.8 2.6 6 .7 2.2 4 9.4 7.2 16 3.3 6.6 7 14.9 8.1 18.4 2.2 6.4 2.2 6.4 7.7 8.2 3 1 5.6 1.9 5.6 1.9.1 0 .5 1.1.8 2.5.5 2 1.3 2.5 3.9 2.5 2.5 0 4.4 1.1 8.1 4.5 2.7 2.5 5.2 4.5 5.6 4.5.4 0 1.9 1.3 3.3 3 3 3.3 5.4 3.9 6.4 1.4.4-1.1-.8-2.9-3.8-5.5-15.5-13.6-19-17.8-20-24-.4-2.6-1.4-6.3-2.3-8.1-2.3-5-2.4-8.8-.3-8.8 1.4.1 4.6 3.7 14.3 16 8 10.2 17.9 20.6 21.6 22.5 1.4.8 5 3.7 7.8 6.5 5.2 5 11.5 9 14.4 9 .8 0 2.4.9 3.4 2 1.9 2.1 12.4 4.6 14.3 3.5 1.6-1-1-3.5-5.6-5.5-2.3-1-5.4-3.2-7.1-4.9-1.6-1.8-5.6-4.8-8.8-6.7-3.3-1.9-7.8-5.3-10-7.4-2.3-2.1-5.7-4.9-7.6-6.2-1.9-1.3-4.1-3.6-4.8-5-.7-1.5-2.7-3.8-4.5-5.2-1.7-1.4-3.8-3.1-4.5-3.8-2.1-2-23.2-31.6-23.2-32.5 0-.5-5.5-11.6-8.3-16.8-1-1.7-1.7-3.5-1.7-4.2 0-.7-1.1-3.6-2.4-6.5-1.3-2.9-2.9-7.3-3.6-9.7-.6-2.4-1.8-5.4-2.5-6.5-.7-1.2-1.6-3.5-1.9-5.1-1.1-5.6-5.2-55.3-4.7-57 .2-.6.4-5.7.6-11.5.5-18 5.6-42.8 11.5-55.5 1.5-3.3 3.1-7.4 3.4-9.1.4-1.8 1.7-4 2.8-5 1.1-1.1 3.1-4.2 4.3-6.9 1.3-2.8 3-5.7 3.8-6.4.9-.7 1.9-2.5 2.2-4.1.3-1.5 1.5-3.6 2.6-4.6 1-.9 1.9-2.2 1.9-2.9 0-1.4 11.9-15.9 15.4-18.6 1.3-1.1 2.7-2.7 3.1-3.7.3-.9 3.3-4 6.6-6.7 3.4-2.8 8-6.6 10.3-8.6 2.2-2 6.7-5.3 9.9-7.4 3.3-2.1 6.1-4.4 6.4-5.1.3-.7 2-1.8 3.8-2.4 1.9-.6 5-2.4 7.1-4.1 2.1-1.6 4.8-3.2 6.1-3.5 1.2-.4 2.3-1 2.3-1.5s.9-.9 1.9-.9c1.1 0 2.2-.4 2.6-.9.3-.5 1.8-1.2 3.5-1.6 2.5-.5 6.6-3.2 11.8-7.5.7-.6 1-1.5.7-2.1-1-1.6-4.8-.9-8.9 1.5zM694.8 674.2c.7.7 1.2 2.3 1.2 3.6 0 1.3 1.1 4.7 2.4 7.5 4.3 9.4 5.2 18.2 1.8 17.5-1-.2-2-2-2.7-4.6-.5-2.3-1.5-4.6-2.2-5-1.7-1.1-3.1-5.3-3.9-12-.8-7.5.4-10 3.4-7zm12.8 40.3c.8 3.1 0 4.2-2 2.6-1.4-1.2-1.1-5.1.5-5.1.5 0 1.1 1.1 1.5 2.5zm5 7c.4.8.3 2.3-.1 3.2-.6 1.7-.7 1.7-2.1-.1-.8-1.1-1.4-2.6-1.4-3.3 0-1.8 2.9-1.6 3.6.2zm5.1 14.7c-.3.7-.5.2-.5-1.2s.2-1.9.5-1.3c.2.7.2 1.9 0 2.5zM952.5 440.1c.4.5-.4.9-1.7 1-5.8.1-17.3 1.1-17.7 1.5-.5.5 1.4 1.1 6.4 1.9l4 .7-3.3 1.6c-2.6 1.3-3.5 1.3-4.1.4-.5-.9-1.5-1-3.2-.3-1.4.5-6.3 1-11 1-4.6.1-10.2.3-12.4.5-2.2.3-9.2.9-15.5 1.5-6.3.6-13 1.2-14.7 1.4-1.8.1-3.3.5-3.3.9s-2.3 1-5.1 1.4c-2.8.4-5.3 1.3-5.6 2-.3.8-1.2 1.4-2 1.4-2.9 0-10.3 5.2-10.9 7.6-.8 3.2.3 7.4 1.9 7.4.7 0 3.7-2.3 6.7-5.1 4.9-4.7 5.6-5 8.9-4.4 1.9.4 4.8 1.3 6.3 2.1s3.6 1.4 4.8 1.4c1.2 0 1.8.5 1.5 1-.4.6-1.1.8-1.6.5-.5-.4-.9 0-.9.8 0 .9 1.1 1.3 3.8 1.1 2-.1 3.9-.3 4.2-.4.3-.1 1.7-.2 3.2-.2 1.5-.1 2.5-.4 2.3-.9-.5-.8 9-5.5 15-7.5 1.7-.5 4.8-1 7-.9 2.2 0 4.3-.4 4.6-.8.4-.5 1.7-.4 2.9.3 1.3.7 5.3 1.4 8.8 1.6 3.6.3 9.5 1.1 13.1 2 4.2.9 6.7 1.1 6.9.5.2-.7 1-.6 2.2.1 1.4.9 2.2.9 3.5-.2 3.2-2.6 5.9-2.2 9.5 1.5 1.9 1.9 4.3 3.5 5.2 3.5.9 0 2 .5 2.4 1.1.4.7 2.5.9 6.3.3 3.1-.4 6.3-.7 7.1-.6.8.1 4.8.3 8.8.5 6.9.4 7.4.5 9.2 3.4 2.1 3.6 5.1 4.9 7.8 3.4 2.2-1.2 3.2-.5 3.2 2.1 0 1.2-.4 1.6-1.2 1.2-.8-.5-.9 0-.5 1.7.4 1.3.7 2.8.7 3.2 0 1.4 6.4.3 7.6-1.2 1.3-1.7 7.6-1.9 8.2-.3.2.6 2.1 2.2 4.3 3.4 2.1 1.2 3.9 2.5 3.9 2.9 0 .4-1.7 1.3-3.7 2-5.1 1.6-5.2 1.6-4.6 3.9.3 1.1 1.7 2.3 3.2 2.6 5.3 1.2 6 1.5 6.6 3.3.3 1 2.5 3.2 4.9 4.9 2.4 1.7 5.1 4.7 6 6.7.9 1.9 2 3.5 2.4 3.5.4 0 1.5-1.8 2.4-4 2.1-5.1 3.4-5.1 4.3.1 1.4 8.3 6.5 2.2 7.3-8.6.2-3.3.8-6.5 1.2-7 1-1.3-.5-12-2.4-17.4-1.3-4-1.3-4.1.6-3.5 1.1.3 2.8.7 3.7.9 1 .1 1.6 1.2 1.6 2.6 0 2 .6 2.5 3.4 2.7 2.8.3 3.3.1 2.7-1.3-.3-.9-.2-1.4.3-1.1 1.3.8 3.4-2.1 2.8-3.8-.3-.8-2.1-1.6-3.9-1.8-2.8-.3-3.3-.7-3.6-3.3-.4-2.9-1.8-5.5-3.1-5.5-.4 0-1.5 1.6-2.5 3.5-1.1 1.9-2.5 3.5-3.3 3.5-.7 0-1.3.5-1.3 1.1 0 .6-1 .9-2.3.7-1.2-.1-3.7.4-5.5 1.1-3 1.3-3.8 1.1-10.2-1.8-3.9-1.7-7.7-3.1-8.5-3.1-.8 0-2.9-1.3-4.7-2.8-3.3-2.8-17.6-10.2-19.7-10.2-.6 0-2.9-1.3-5.1-2.9-2.3-1.6-5.8-3.1-8.6-3.5-2.6-.3-5.6-1.4-6.7-2.4-1-.9-2-1.6-2.1-1.4 0 .2-.8.1-1.6-.1-.8-.3-4.4-1.4-8-2.5-3.6-1.1-7.9-2.3-9.7-2.7-3.4-.7-7.4.8-7 2.7.1.6-.8 1.7-2 2.3-1.3.7-2 1.5-1.6 1.8.3.4.1.7-.5.7-1.2 0-1.6-1.8-1.3-5.1.1-1-1.3-2.2-3.9-3.2-2.2-.8-3.8-1.1-3.5-.6zm-3.5 6.2c0 .6-.3.7-.6.4-.4-.3-1.5-.2-2.5.4-1.4.7-1.9.6-1.9-.4 0-.9 1-1.5 2.5-1.5 1.4 0 2.5.5 2.5 1.1zm5 .2c0 .8-.4 1.5-1 1.5-.5 0-1-.7-1-1.5s.5-1.5 1-1.5c.6 0 1 .7 1 1.5zm32.6 8c.6.8 1.6 1.5 2.3 1.5 1.9 0 1.3 4-.6 4.2-3.2.2-6.8-.3-7.9-1.3-1.4-1.1-2.4-5.6-1.5-6.5 1-1 6.5.5 7.7 2.1zm27.8 9.1c.9.3 1.6 1 1.6 1.6 0 1.4-5.3.5-5.8-1-.4-1.3 1.6-1.6 4.2-.6zM881.1 441.9l-2.4.6 2.8 1.3c3.1 1.4 6.5.7 6.5-1.4 0-1.5-2.7-1.7-6.9-.5zM1105 444c0 1.6.5 3 1 3 .6 0 1-1.4 1-3 0-1.7-.4-3-1-3-.5 0-1 1.3-1 3zM1093.5 444.1c-.3 1.3-.4 4.7-.3 7.6.2 4.2.7 5.3 2.3 5.7 1 .3 2.2 0 2.6-.6.4-.6 1.2-.7 1.8-.4.7.5 1.1-.4 1.1-2.4 0-3-1.8-6.7-5.2-10.4-1.6-1.8-1.7-1.8-2.3.5zM1405.1 450.1c0 1.5.6 4.2 1.4 6.2.8 2 1.5 7.3 1.6 12.1.3 9.3 1 10.6 5.9 10.6 1.9 0 2-.4 1.5-4.3-1.4-10.8-3.1-16.2-5.3-17.3-1.2-.6-1.9-1.4-1.4-1.9.4-.5.2-.5-.5-.1-.8.4-1.4-.2-1.7-1.6-.3-1.3-.7-3.2-.9-4.3-.4-1.5-.5-1.4-.6.6zM1077.6 453.6c-.8 2.2-.8 7.9.1 7 .8-.7 1.6-8.6.9-8.6-.2 0-.7.7-1 1.6zM861.5 455c-.3.5.1 1 .9 1 .9 0 1.6-.5 1.6-1 0-.6-.4-1-.9-1-.6 0-1.3.4-1.6 1zM1086.4 463.6c-.7 4.8.2 6.4 3.7 6.4 1.2 0 1.8-1 2-3.3.7-5.7 0-7.7-2.6-7.7-2.1 0-2.5.6-3.1 4.6zM733 470.1c0 .5.5.7 1 .4.6-.3 1-.8 1-1.1 0-.2-.4-.4-1-.4-.5 0-1 .5-1 1.1zM836.5 470.6c-1.1 1.1-1.3 1.9-.6 2.4 1.2.7 1.2 8.2.1 10-.8 1.3-3.5 1.5-6.7.5-2.2-.7-2.3-.5-1.7 3.9.3 3 .1 4.6-.6 4.6-.6 0-.8.5-.5 1.1.4.6 1.9.9 3.4.7 3-.3 7.1 2.7 4.8 3.5-.9.3-.9.8.2 2.1 1.2 1.4 1.6 1.5 3 .2.9-.7 3.1-2.1 4.9-3 3.4-1.8 3.5-3.6.1-3.6-1 0-1.9-.4-1.9-1 0-.5-.7-.7-1.5-.4-1 .4-1.8-.2-2.4-1.7-1.4-4-.4-4.9 5.9-4.9 3.2 0 6.5-.3 7.4-.6 2.5-1 1.9-3.2-1.5-4.9-2.5-1.3-3-2.2-2.9-4.8.1-1.8.2-3.8.1-4.5-.2-1.8-7.6-1.5-9.6.4zM1098.1 471.6c-1.2 1.4-1.1 1.6.4 1.2 1-.1 2-.9 2.3-1.6.5-1.7-1-1.5-2.7.4zM853.2 474.1c.2.6.8 1 1.3 1s1.1-.4 1.3-1c.2-.6-.4-1.1-1.3-1.1s-1.5.5-1.3 1.1z"/><path d="M932 482c-8.4.8-11 1.6-11 3.5 0 1.8-2.7 2.6-6.6 1.9-3.8-.7-17.7.9-27.9 3.3-14 3.2-29.3 9.6-35.6 15-1.9 1.6-5.2 4.2-7.4 5.8-5.5 4-27.5 26.3-27.5 27.9 0 .7-1.4 3.4-3 6-1.7 2.7-3.5 7.1-4.1 10-.5 2.8-1.9 8.2-3 11.9-1.7 5.7-2 8.2-1.4 14.5 1 11.7 3.7 23.4 7.2 31.7 4.4 10.5 5.7 12.9 9.3 17.9 6.2 8.6 18.8 20.4 24.9 23.5 2 1 7 3.6 11.1 5.8 13.2 7.1 21.8 9.5 35.5 10 13.7.4 23.8-.9 31-4.2 2.8-1.2 7-2.5 9.5-2.9 3-.4 6.3-2 9.7-4.5 2.8-2.2 7.4-5.2 10.1-6.8 5.3-2.9 14.5-12.6 15.8-16.5.4-1.3 1.8-4 3.2-6 2.5-3.9 3.4-5.3 9.2-16 6.4-11.7 7.2-14.5 7.7-27 .9-19.3-2.6-35.9-10.1-48.3-2-3.3-3.6-6.4-3.6-6.8 0-.9-2.2-3.3-13.4-14.7-9-9.1-14.6-13.2-27.1-19.4-4.7-2.4-10.5-8.2-10.5-10.5 0-1.6 7.4-.8 10.3 1.1 1.4 1 5.8 2.5 9.9 3.4 4 .9 9 2.5 11 3.5 2.1 1.1 5 1.9 6.6 1.9 3.5 0 13.3 3.3 17.9 6 1.9 1.1 4 2 4.7 2 .7 0 3.9 1.6 7.2 3.6 3.2 2.1 8 4.8 10.6 6 2.7 1.3 6.5 4 8.7 5.9 2.1 1.9 4.2 3.5 4.6 3.5.4 0 2.9 1.9 5.6 4.2 2.6 2.4 6.1 5.3 7.8 6.6 1.7 1.3 3.1 2.9 3.1 3.5 0 .7 1.6 3.2 3.5 5.6 1.9 2.4 3.5 4.8 3.5 5.3s1.3 2.6 2.9 4.6c1.7 2 3.5 5.8 4.2 8.5.9 3.6 1.7 4.9 3.5 5.3 1.6.4 2.4 1.3 2.4 2.7 0 1.1.8 3.9 1.9 6.1 1 2.3 2.4 6.1 3.1 8.6.8 2.5 2 5.2 2.7 6.1 1.5 1.8 3.8 13 4.7 23.2.5 5 .2 7.5-.9 9.7-.8 1.6-1.5 4-1.5 5.2 0 1.3-.9 4.2-2 6.3-1.8 3.5-6.3 17-7.7 23.3-.3 1.2-.9 2.5-1.4 2.8-.5.3-.9 1.2-.9 2 0 1.3-4.2 11.1-7.8 17.9-.9 1.6-2.6 4.1-3.8 5.5-1.3 1.4-4.2 4.9-6.6 7.8-2.4 2.9-6.2 7.7-8.6 10.5-2.3 2.9-4.7 6.3-5.2 7.5-.6 1.3-2.4 2.9-4 3.5-1.7.6-3 1.6-3 2.2 0 1.1-7.4 7.9-13.9 12.7-17.2 12.7-46.1 27.2-63.1 31.6-20.8 5.5-56.3 5.9-80.8 1.1-4.4-.9-6.6-2.2-12-7-3.7-3.2-7-6.2-7.4-6.6-2.7-2.9-12-13.2-13.5-15-1-1.2-2.7-2.3-3.8-2.5-1.6-.2-2.1.3-2.3 3.3-.3 3.7.8 5.2 5.2 7.4 1.1.6 2.2 2.1 2.4 3.3.2 1.2 2.5 4.1 5.2 6.3 2.7 2.3 5.2 5.1 5.6 6.1.3 1.1 2.6 2.9 5 3.9 2.4 1.1 4.4 2.4 4.4 2.8 0 .5 1.4 1.4 3.2 2.2 1.7.7 4.6 2.7 6.4 4.5 1.8 1.9 4.5 3.6 6.1 4 1.5.4 4 1.7 5.5 2.9 1.5 1.3 4.4 2.6 6.4 3 2.1.4 5.1 1.3 6.7 2.1 1.5.8 6.8 2.4 11.7 3.4 4.9 1 10.7 2.8 13 4 3.8 1.9 5.6 2.1 23.9 1.9 19.6-.1 28.4-1.3 37.4-4.8 1.6-.6 4.8-1.1 7.3-1.1 3.2 0 6.4-1.1 12.1-4.2 4.3-2.3 9.7-5.1 12.1-6.4 2.3-1.2 5.8-3.5 7.7-5.1 2-1.5 5-4 6.9-5.6 1.8-1.5 4.3-2.7 5.5-2.7 1.1 0 2.1-.4 2.1-.9s2.1-2.9 4.6-5.3c2.5-2.4 6.4-6.3 8.7-8.8 2.3-2.4 5.9-6 8-8 2-1.9 3.7-3.9 3.7-4.3 0-.5 1.3-2 2.9-3.5 1.6-1.5 3.7-4.5 4.7-6.7s2.7-5 3.8-6.1c1.2-1.2 2.9-4.6 4-7.5 1-3 2.7-6.6 3.7-8.1 2.4-3.3 3.8-7.2 8.2-22.9 3-10.4 3.6-14.6 4.1-25.9.3-7.9 0-17.2-.7-22.4-.8-7-.8-9.1.1-9.4 1.7-.5 1.5-3.5-.9-12.7-1.2-4.4-2.7-10.6-3.4-13.8-.7-3.2-1.9-6.4-2.5-7.2-.6-.8-1.2-3.6-1.2-6.2s-.3-5.2-.8-5.8c-.4-.5-1.3-2.6-1.9-4.7-.7-2-2.3-4.8-3.6-6.3-1.5-1.5-2.5-3.8-2.5-5.6 0-1.7-1.1-4.7-2.5-6.7s-2.5-4.4-2.5-5.4c0-.9-1.1-3-2.5-4.6-1.4-1.7-3.1-4.2-3.9-5.6-4.2-8.1-27.8-31.3-37.9-37.2-3.4-2-7.1-4.4-8.3-5.5-3-2.8-24.3-10.6-31.1-11.4-3.2-.4-9.1-1.6-13.2-2.6-7.8-2-8.9-2-21.1-.9zm-55.6 42c3.1 1.1 5.6 5.8 5.6 10.2 0 6.8-8 14.7-15.2 15-8.3.3-12.8-4.2-12.8-12.7 0-3.9.5-5.1 3.3-7.7 5.7-5.4 12.9-7.2 19.1-4.8zM1075.3 493c0 3 .2 4.3.4 2.7.2-1.5.2-3.9 0-5.5-.2-1.5-.4-.2-.4 2.8zM709.5 494c-.3.5-.2 1 .4 1 .5 0 1.3-.5 1.6-1 .3-.6.2-1-.4-1-.5 0-1.3.4-1.6 1zM817.8 495.9c-1.5.8-3.2 2.6-3.8 3.9-1 2.3-1.2 2.3-2.9.8-2.6-2.3-5-2.1-4.4.4.5 1.9.6 2 1.9.3 1.2-1.7 1.3-1.6 1.5.7.1 1.4 0 3.5-.1 4.7-.2 3.1 2.3 3 4.8-.2 1.1-1.4 2.7-2.5 3.6-2.5.9 0 1.9-.8 2.2-1.8.3-.9 1.2-3.1 2-4.7.9-1.7 1.2-2.7.8-2.3-.4.4-1.2.4-1.8-.1-.6-.4-2.2-.1-3.8.8zM828.5 505.9c-.6 1.1.9 2.3 1.9 1.4.9-.9.7-2.3-.3-2.3-.6 0-1.2.4-1.6.9zM824.7 509.6c-.4.4-.7 1.4-.7 2.3 0 1.1.3 1.2 1.1.4.6-.6 1-1.6.7-2.3-.2-.6-.7-.8-1.1-.4zM791.4 515.4c-1.5 1.2-1.7 1.8-.7 3.3.6 1 1.7 1.7 2.3 1.5.7-.1 2.8.6 4.7 1.8 4.1 2.4 3.8 2.4 5.6.6 2.6-2.6.9-6.4-3.2-7.6-4.8-1.3-6.4-1.3-8.7.4zM781.7 524l-2.6 2.1 2.5 4.9c1.4 2.8 2.8 5 3.2 5 1.8 0 3.1-5.6 2.1-9.2-1.3-4.8-2.1-5.2-5.2-2.8zM1053.1 524.4c-1.3 1.5-.9 6.4.5 5.6.5-.3.9-1.1.9-1.8 0-.8.9-1.8 1.9-2.4 1.5-.8 1.6-1.2.5-1.9-1.9-1.2-2.5-1.1-3.8.5zM1062.5 524c-.3.5.1 1 .9 1 .9 0 1.6-.5 1.6-1 0-.6-.4-1-.9-1-.6 0-1.3.4-1.6 1zM805 529.9c0 1.2.6 2.1 1.6 2.1.9 0 1.4-.7 1.2-1.7-.5-2.5-2.8-2.8-2.8-.4zM793.1 534.1c1.1 1.1 2.3 1.8 2.6 1.5.9-.8-1.7-3.6-3.3-3.6-1 0-.7.7.7 2.1zM777.3 541.5c-1.8 2-1.7 8.6.1 7.9 1.5-.6 3-7.4 1.8-8.5-.4-.4-1.3-.1-1.9.6zM769.3 578c-2.6 1.1-3 2.8-.9 3.6 1.9.7 5.8-1.4 5.3-2.9s-1.8-1.7-4.4-.7zM1111 579.5c0 1 .7 1.5 1.8 1.3 2.1-.4 1.9-2.2-.2-2.6-1-.2-1.6.3-1.6 1.3zM1126.6 611.9c-.7 1 2.7 5.1 4.2 5.1.8 0 .8-.9.1-3-1.1-2.9-3.2-4-4.3-2.1zM1367.8 619.7c-3.5 2.4-6.7 7.7-5.4 9 1.3 1.4 5.6-2.2 7.6-6.5 1.2-2.4 2-4.5 1.8-4.7-.2-.1-1.9.8-4 2.2zM626.8 636.1c-1.4.4-3.2 1.1-4 1.5-.7.5-4.9 1.6-9.3 2.5-4.4 1-12.3 2.7-17.5 3.8-5.2 1.2-11.1 2.4-13 2.7-1.9.3-3.9.7-4.5.9-.5.1-1.3.2-1.6.1-.3 0-1.4.6-2.4 1.4-.9.8-4 1.7-6.9 2.1-2.8.3-11.2 1.8-18.6 3.3-20.8 4.1-25.1 4.9-30.5 5.6-2.7.4-9 1.5-14 2.3-15.2 2.7-38.2 5-54.8 5.4-14 .4-16.5.2-21.9-1.6-3.4-1.2-7.1-2.1-8.2-2.1-1.2 0-3.6-.9-5.4-2-4.4-2.7-9.6-2.6-11.6.2-2.7 3.9.2 14.1 5.4 18.8 1 .8 2 3.3 2.4 5.5.4 2.2 2 6 3.6 8.5 4.4 7 9 20.4 9 26.5 0 2.6.9 5.3 2.4 7.6 3.8 5.6 8.6 16.3 8.6 19.3 0 3.2 2.7 7.6 4.6 7.6.8 0 2.2.8 3.3 1.7 10 9.4 10.4 9.6 24.6 13 9.8 2.3 52.4 2.9 72.5 1 9.1-.9 22.6-2.1 30-2.8 7.4-.6 17.1-1.7 21.5-2.5 4.4-.8 12.7-1.7 18.5-2 5.8-.3 14.1-1.4 18.5-2.4 11.5-2.7 25.9-4.2 32.5-3.4 4.3.5 6.4.2 8.8-1 3-1.5 3.2-2 3.2-6.9-.1-8-3.1-18.5-10.4-35.9-.9-2.1-1.6-6.4-1.6-9.6 0-5-.6-6.9-3.4-11.7-1.9-3.1-4.2-8.2-5.2-11.3-.9-3.1-2.5-7.7-3.5-10.2-.9-2.5-2.9-7.9-4.4-12-8.6-24-9.8-25.8-16.7-23.9zM1146 638c0 .5.5 1 1 1 .6 0 1-.5 1-1 0-.6-.4-1-1-1-.5 0-1 .4-1 1zM1147.8 640.7c.7.3 1.6.2 1.9-.1.4-.3-.2-.6-1.3-.5-1.1 0-1.4.3-.6.6zM1351.5 641c.3.5 1 1 1.6 1 .5 0 .9-.5.9-1 0-.6-.7-1-1.6-1-.8 0-1.2.4-.9 1zM1151 643.8c0 .5 1.1 1.9 2.4 3.1 2.6 2.5 4.1 1.1 2.4-2.2-.9-1.7-4.8-2.4-4.8-.9z"/><path d="M1122 690.2c-3.5 3.7-7.1 12.1-11 25.3-2.9 10-16.2 38.2-20.3 43.1-1.3 1.6-3.2 4.4-4.1 6.2-.9 1.8-2.3 3.5-3.1 3.8-.8.3-1.7 1.9-2 3.4-.4 1.9-5.4 7.8-14 16.7-7.4 7.6-13.5 14.1-13.5 14.5 0 .5-.6.8-1.2.8-.7 0-2.9 1.5-5 3.3-2 1.7-5.1 4.1-6.9 5.2-1.8 1.1-5.4 3.3-8 5-12.8 8-17.1 10.5-18 10.5-.6 0-3.4 1.1-6.2 2.4-2.9 1.3-6.3 2.7-7.7 3.1-1.4.4-3.8 1.3-5.5 2-6.3 2.7-12.3 4.4-21.5 6-5.2.9-11.3 2.4-13.5 3.3-5.4 2.3-43.7 2.5-53.5.2-11.8-2.7-25.2-1.6-28 2.2-.4.4-2 1-3.6 1.4-2.9.6-3.2.3-6-5.1-3.6-7.2-6.8-9.5-17.2-12.9-8.4-2.6-22.4-3.7-23.6-1.7-1.2 1.9 9.1 10.1 12.6 10.1 3 0 11.2 3.1 13.4 5.1 1.1 1 2.7 1.9 3.6 1.9.9 0 2.1.7 2.9 1.6 1.9 2.4 7.1 4.3 9 3.3 1.1-.6 3.3 0 6.5 1.7 3.3 1.8 6.2 2.5 8.9 2.4 11.2-.6 12.5-.2 12.5 4.1 0 2.2.5 3.2 2 3.6 1.1.3 1.7.9 1.4 1.4-.3.5 1.6.9 4.3.9 5.1.1 8.3 1.7 8.3 4.4 0 2 3.3 2.1 5.4.1.8-.8 3.1-1.5 5-1.5 2 0 3.6-.3 3.6-.8 0-.4 5.4-.7 12-.7 8.5 0 12 .3 12 1.2 0 1.7 16.7 2.3 20.3.7 2.2-1 3.6-1 7.2 0l4.4 1.4.3-4.6c.3-4.2.5-4.6 3.2-4.9 2.3-.3 2.7-.1 2.2 1.2-.3.9-.6 1.9-.6 2.1 0 .2-.7.4-1.5.4s-1.5.9-1.5 2c0 1.6.7 2 3 2 1.7 0 3-.5 3-1 0-.6 2.6-1 5.9-1 5.2 0 6.2-.3 8-2.6 2.8-3.6 2.6-5-.6-4.9-3.2 0-4.5-3.1-1.7-4.2 1.2-.4 2.5.3 4.3 2.4 1.4 1.7 4.2 4 6.2 5.2 3.7 2.2 9.9 2.9 9.9 1.1 0-.6 1.1-1 2.4-1 1.4 0 2.8-.4 3.1-1 .7-1.1-2.1-1.8-9.3-2.3-7.1-.5-8.2-1.8-4.6-5.2 3.4-3.1 7.2-4.9 13.9-6.4 8.5-2 18.5-6.2 21.7-9.2 2.3-2 3.8-2.7 5.4-2.3 1.6.4 2.6 0 3.4-1.5.6-1.2 1.7-2.1 2.5-2.1s1.5-.4 1.5-.8c0-.5 1.8-1.7 4-2.8 2.2-1 4-2.5 4-3.2 0-.6.9-1.2 1.9-1.2 1.4 0 1.8-.5 1.4-2-.6-2.3 2.8-4 8.3-4 4.3 0 6.8-2.2 6.2-5.5-.7-3.3.6-5.2 2.4-3.7 1 .8 2.5.9 5.1.1 4.4-1.2 5.3-2.5 3.5-4.7-1.9-2.4-5.2-9.1-4.7-9.6.2-.2 2.8.1 5.6.7 4.8 1 5.5.9 8.2-1.1 1.7-1.2 3.3-2.2 3.7-2.2.3 0 1.9-.9 3.4-2 1.6-1.1 3.5-1.7 4.3-1.4.8.3 1.8.1 2.2-.5.3-.6 2-1.1 3.7-1.1 1.7 0 2.8-.3 2.5-.7-1.2-1.1 1.4-3.3 3.9-3.3 1.6 0 2.4-.6 2.4-1.8 0-1 1.3-2.3 3-3.1 1.7-.7 4.3-2.3 5.8-3.5 2.9-2.5 7.2-3.9 7.2-2.5 0 .4.7.6 1.6.2 1-.3 1.4-1.3 1-2.5-.2-1.1 0-3.2.5-4.7l1.1-2.6 1.3 2.6c1 1.8 2.5 2.8 5.1 3.2 4.2.7 9.2-.1 11.4-1.7 5-3.8 7.9-4.7 19.5-6.2 2.8-.4 5.5-1 6-1.4.6-.4 2.8-1.1 5-1.4 2.2-.4 6-1.7 8.5-2.8 2.9-1.3 6.6-2 10.5-2 5.3 0 12.4-2.4 14.5-4.9.3-.3 1.6-.9 3-1.2 1.4-.3 4.5-1.2 7-2.1 10.1-3.4 19.7-5.9 23.2-6 2.1-.1 4.5-.8 5.4-1.7 1.5-1.6 1.4-1.7-1.2-2.2-3.8-.7-16.6-1.6-33.2-2.3-9.4-.3-16.1-1.2-22.5-2.9-5.1-1.3-11.2-2.7-13.7-3-2.5-.4-6.1-1.3-8-2-1.9-.7-6.2-2.1-9.5-3.1-5.3-1.5-10.1-3.9-30.6-15.3-2.6-1.4-9.9-6.1-16.3-10.4-12.8-8.4-16-9.3-19.6-5.5zm76.1 61.8c3.2 1.8 2.3 4-1.5 4-6.3 0-8.7-2.2-4.3-4 3-1.2 3.5-1.2 5.8 0zM918.6 861.5c1.8 1.3 1.7 1.4-1.8 1.5-2 0-4.5.3-5.5.7-1.3.4-1.2.1.6-1.5 2.8-2.6 4-2.7 6.7-.7zm-2.3 3.2c-.7.2-1.9.2-2.5 0-.7-.3-.2-.5 1.2-.5s1.9.2 1.3.5zM803 720.4c0 .2.7.6 1.5 1 .8.3 1.5.1 1.5-.4 0-.6-.7-1-1.5-1s-1.5.2-1.5.4zM806 724c0 .5.5 1 1 1 .6 0 1-.5 1-1 0-.6-.4-1-1-1-.5 0-1 .4-1 1zM1423.7 781.8c-1.2 1.3-1.7 3.7-1.7 8.4 0 6.3-2.8 15.3-5.2 16.9-.5.3-.9.9-.9 1.3.5 3.3-.4 4.9-3.9 7.4-2.1 1.5-3.9 3.1-4 3.6 0 .6-2 3.6-4.5 6.7-2.5 3.2-4.5 6.6-4.5 7.6 0 2.3-2.9 7.1-6.3 10.3-1.5 1.4-2.7 3.3-2.7 4.2 0 .9-.8 2.3-1.9 3-1 .7-2.1 2.3-2.5 3.5-.4 1.3-1.1 2.3-1.6 2.3-.4 0-1.3 1.3-1.9 3-.5 1.7-1.7 3-2.6 3-.9 0-1.4.4-1.1.9.3.4-.1 1.7-.9 2.7-.8 1-1.5 3.1-1.5 4.6 0 1.6-.5 2.8-1 2.8-.6 0-1 .6-.8 1.2.1.7-1.1 3.8-2.7 6.8s-2.8 6.1-2.6 6.9c.1.7-.2 1-.8.7-.5-.3-1.2.7-1.6 2.4-.4 1.6-1.1 3.2-1.6 3.5-.5.4-.9 1.6-.9 2.9 0 1.2-.9 3.2-1.9 4.3-1.4 1.5-1.6 2.4-.8 3.2.7.7.3 1.7-1.7 3.6-1.5 1.4-3.3 2.5-4.1 2.5-2 0-4.7 4.3-4 6.3.4.8.2 1.8-.4 2.2-.6.3-1.1 1.5-1.1 2.5 0 1.1-.8 2.4-1.9 2.9-1.9 1.1-3.1 5.8-5.2 21.1-1.5 11.1-1.3 10.7-4.7 11.5-1.7.3-3.4 1.6-4 3-.7 1.4-1.7 2.5-2.3 2.5-.6 0-.9.9-.6 2 .3 1.1.1 2-.4 2s-.9 1.3-.9 2.9c0 4.7-1.2 9.1-2.4 9.1-.7 0-2.2 1.7-3.4 3.7-1.1 2.1-3.8 5.4-6 7.3-2.1 2-4.1 4.4-4.5 5.4-.4.9-1.1 1.4-1.7 1.1-.6-.4-1 .8-1 2.9 0 2.4-.7 4.2-2 5.3-6.5 5.7-7.1 6.4-6.5 8.2.6 2.1-3.5 5.4-6.3 4.9-.9-.2-1.7.3-1.7 1s-.9 2.1-2.1 3c-1.2.9-2.4 2.5-2.7 3.5-.4 1-1.1 1.5-1.7 1.2-.5-.3-1-.2-1 .3 0 1.2-2.2 2.1-6.9 2.8-5 .7-10.1 3.5-10.1 5.6 0 1.6-.3 1.6-3.7.2-2.1-.9-4.9-2.6-6.3-3.8-1.4-1.3-5.1-3.5-8.3-5.1-3.2-1.6-7.7-4.6-10-6.7-2.3-2.1-4.8-3.8-5.5-3.8-1.7 0-5.8-2.7-11.1-7.2-2.4-2.1-5-3.8-5.8-3.8-.7 0-2.9-1.6-4.9-3.5-1.9-1.9-4-3.5-4.7-3.6-4.5-.3-6-1-9.6-4.2-3.6-3.2-4.8-3.8-7.6-3.7-.3 0-1.8-.6-3.3-1.3-13.4-6.8-54.7-5.4-69.6 2.4-2.2 1.2-7 3.1-10.6 4.3-4.5 1.6-6.9 3-7.7 4.6-.6 1.3-3 3.1-5.2 4.2-2.2 1-4.6 2.6-5.3 3.6-.7 1-3.9 3.7-7 6-3.2 2.4-5.8 4.6-5.8 5.1 0 1.6-9.2 15.9-12.5 19.6-4.3 4.6-5.2 7.6-6.1 20.5-.4 5.8-.8 11.6-1 13-.1 1.4-.3 3.4-.3 4.5-.1 1.8-.4 1.7-2.6-.9l-2.5-2.9-2.5 2.3c-1.4 1.3-2.5 2-2.5 1.5s-1.5.8-3.4 2.8c-1.8 2-4 3.7-4.9 3.7-.8 0-2 .6-2.6 1.4-1 1.1-1.9 1.2-4.1.4-3-1-12-.7-17.4.6-1.6.4-3.3.8-3.9.9-.6.1-1.3-.7-1.5-1.8-.2-1.1-1.2-3.1-2.2-4.5-1.6-2.2-2.5-2.5-8.5-2.5-3.7 0-6.9-.5-7.3-1.1-.6-.9-6-2.5-9.7-2.9-.5 0-2-.7-3.3-1.3-1.2-.7-2.6-1.1-3.1-.8-.5.3-1.4-.1-2.1-.9-.6-.8-3.2-1.7-5.7-2.1-3.8-.5-5.4-1.5-9.1-5.5-2.5-2.7-5.1-4.9-5.8-4.9-.7 0-1.9-.6-2.6-1.3-1.7-1.5-4.8-3.4-10.7-6.4-2.5-1.3-5.3-3-6.3-4-1-.9-4.1-2.4-7-3.4-2.8-.9-6.3-2.8-7.7-4.1-4.1-3.9-14.4-10.5-17.1-11-1.4-.3-3.6-.2-5 .1-2.1.6-2.4 1.2-2.2 3.9.3 2.7-.5 4-5.8 9.2-4.7 4.6-6 6.5-5.5 8s0 2.3-2 3.2c-3.5 1.6-4.8 0-4.9-5.9-.1-3.9.5-5.6 3.2-9.3 1.8-2.5 5-5.4 6.9-6.6 6.9-3.8 4.7-11.1-4.1-14.5-5.6-2-8.1-3.4-9.6-5.1-1.9-2.2-9.2-3.9-11.4-2.6-4 2.2-.6 7.4 4.3 6.5 3.4-.7 4.7 1.3 2.9 4.3-1.5 2.4-4.1 3.5-4.6 2.1-.6-1.7-1.7-1.3-5 1.9-5.8 5.5-11.4 3.3-13.3-5-1.6-6.9-.6-8.5 6.6-10.5 7.9-2.3 7.5-2.9-4.3-8-4.8-2-10.5-4.5-12.7-5.5-5.4-2.4-12.1-3.5-13-2-.4.6-.1 2.4.5 4 .9 2.3 2.1 3.1 4.9 3.6 5.9 1.1 9.1 3.1 9.1 5.9 0 1.3-.5 2.7-1.1 3-.5.4-1.4 1.7-1.9 2.9-1.3 3.4-4.6 2.6-9.5-2.3-3.3-3.3-4.8-4.1-6.4-3.6-1.2.3-2.1 1.1-2.1 1.6s-1.5.9-3.3.9c-2.6 0-3.6-.6-4.5-2.5-1.3-2.7-3.2-3.1-6.1-1.3-1.6 1-1.7 1.4-.5 2.5 2 2 1.7 4.1-.5 4.8-2.2.7-7.1-1-7.1-2.5 0-.6-.9-2-2-3.2-1.1-1.2-2-3-2-4.1 0-3.3-2.5-4.8-6.9-4.1-2.2.4-3.9 1.2-3.8 1.8.4 2.1-5 1.8-7.2-.5-1.6-1.7-3.2-2.2-7.9-2.3-4.2-.1-6.6-.6-7.9-1.9-2.2-2-10.2-2.3-13.5-.6-2 1.1-3 .8-9-2.2-2.6-1.3-5.6-1.1-8.2.6-2.6 1.7-7.4 1.1-8.2-1-.7-1.6-24-2.1-25.9-.5-.8.6-3.5 1.3-6.2 1.6-2.6.2-7 .6-9.8.9-2.7.3-8.1.5-11.9.5-3.8 0-7.4.4-8 .9-.6.5-3.1 1.2-5.5 1.5-5.9.6-7.1 2-4.3 4.8 1.9 2 2.2 2 2.2.5 0-1 .5-1.5 1-1.2.6.3 1 1.5 1 2.7 0 1.4-.5 1.8-1.6 1.4-1.6-.6-8.4 2.9-8.4 4.3 0 .5-2.9 1.1-6.5 1.5-7.4.7-11.5 2.3-11.5 4.3 0 .7-.9 2.2-2 3.3-2.4 2.4-2.7 6-.5 6 .8 0 1.5-.6 1.5-1.4 0-1.8 1.8-2.4 8.6-3.2 5.5-.7 13.4 1 13.4 2.8 0 2.1 1.7.5 2.9-2.8.7-1.9 3.6-5.7 6.3-8.5 4.5-4.3 5.6-4.9 9.2-4.8 2.3.1 3.3.3 2.3.6-1.5.4-1.5.7-.3 2.4 1 1.5 1.1 2.9.4 5.7-2.2 8.3-1.3 11.2 3.5 11.2 4.9 0 8.1-2.8 7.9-7 0-.8.4-3.8 1.1-6.5.6-2.8 1-5.6.9-6.3-.2-.6.4-1.2 1.3-1.2.8 0 1.5.4 1.5.9 0 .4 1.2.6 2.6.3 1.9-.3 2.5-.1 2 .7-.4.6-.1 1.1.9 1.1.9 0 3 1.3 4.7 3 1.6 1.6 3.6 3 4.4 3 .9 0 1.2.5.9 1-.7 1.2 8.8.3 11.5-1 .8-.4 3-.5 4.9-.2 3.4.5 4.3 1 7.9 4.3 5.4 4.9 10.1 6.2 15.4 4.3 6.2-2.1 7.8-1.8 12 2.8 4.1 4.4 5.8 4.8 14 3.2 2.3-.5 3-.1 3.7 1.9.6 1.5 2.8 3.4 5.5 4.7 5 2.4 5.6 3.8 2.8 6.3-2.5 2.2-4.4 2.1-6.2-.3-2.1-2.9-4.6-2.5-6.4 1.1-1.4 2.7-1.4 3.1.2 3.6.9.3 2.5 1.3 3.4 2.1 1 .8 2.4 1.2 3.3.8 1-.4 2.8.7 5.1 2.9 1.9 1.9 3.9 3.5 4.4 3.5.6 0 2.5-1 4.4-2.2 2.3-1.5 3.6-3.4 4.4-6.5.9-3.1 2.1-4.9 4.5-6.3 4-2.5 5.1-2.1 5.5 1.6.2 2.2-.5 3.7-2.8 5.9-3.8 3.7-4.2 9.1-.7 10.4 8.7 3.4 11.7 4.9 15.1 7.8 2.1 1.8 5.5 3.8 7.5 4.4 2 .7 4.6 2.4 5.8 3.8 1.2 1.4 2.9 3.4 3.8 4.3.8 1 2.6 1.8 3.9 1.8 4.5 0 7.5 1.9 9.5 5.8 1.9 3.7 4.8 5.6 9.6 6.4 1.4.2 2.1 1.2 2.3 3.5.3 3.2 1.7 4.9 5.5 6.8 1.2.5 4 3.5 6.3 6.6 3.8 4.9 4.9 5.7 10.2 7.2 4.2 1.1 6.1 2.3 6.9 3.9 1.5 3.3 7.4 9.8 9 9.8.7 0 1.9 1.5 2.7 3.4.8 1.8 3.3 4.6 5.6 6.2 2.4 1.6 5.9 4.6 7.8 6.6 1.9 2 5 4.3 7.1 5.1 2 .8 5.2 3.2 7.1 5.3 2 2.2 5.3 5.5 7.5 7.4 2.2 1.9 4.6 4.7 5.3 6.3.6 1.5 2.4 3.3 3.9 3.9 1.6.7 5.3 3.5 8.3 6.3 3 2.8 6.2 5.6 7 6.1.9.5 3 2.9 4.7 5.3 3.1 4.3 3.2 4.5 2.6 13-.6 8-.9 9.1-5 15.3-2.3 3.7-4.3 7.3-4.3 8.1 0 3.4-3.2 8.8-5.8 9.8-1.4.6-2.9 1.5-3.3 2.1-.4.5-1-.7-1.4-2.9-.4-2.1-1.1-4.4-1.7-5.1-.6-.6-.7-1.2-.3-1.2.4 0-.4-1.2-1.8-2.6-1.8-1.8-3.4-2.5-4.7-2.1-1.4.4-2.4-.1-3.2-1.6-.6-1.2-1-2.4-.9-2.5.2-.2-.6-1.5-1.8-2.8-2.2-2.5-5-3.1-6.7-1.4-.7.7-1.6.4-2.9-1-1-1.1-1.5-2-1.2-2 .4 0-.2-.9-1.3-2s-2.6-2-3.3-2c-.8 0-1.7-.3-2.1-.8-.4-.4-1.3-.7-1.9-.7-.7 0-2-1.7-3-3.8-2-4.2-6.2-6.6-11.5-6.5-2.1.1-3.4.7-3.7 1.9-.7 2 1 5.9 2.5 5.9.5 0 1.7 1.4 2.5 3 .9 1.7 2.7 3.5 4.1 4 1.3.5 2.7 1.8 3.1 2.7.7 2.2 10 11.1 12.4 11.8.9.3 2.3 2 3 3.8 1.5 3.9 7.2 9.4 11.7 11.3 1.8.8 4.9 2.9 7 4.7 11.5 10.2 17.5 10.9 27.6 3.2 2.4-1.8 5.4-3.6 6.7-4 1.3-.4 3.8-1.8 5.4-3.1 1.7-1.2 5.6-3.4 8.7-4.8 3.1-1.4 9.4-4.9 14-7.6 4.6-2.8 8.8-5 9.4-5 .6 0 1.9-1 3-2.1 1-1.2 4.4-3.3 7.4-4.6 3-1.4 6.6-3.3 8-4.2 5.5-3.9 30.1-16 31.4-15.5.8.3 2.2 2.2 3.2 4.2.9 2 3.1 5.7 4.7 8.2 1.7 2.5 3.9 5.7 4.9 7.2 1 1.5 1.8 2.9 1.8 3.2 0 .3 2.6 4.5 5.8 9.3 3.2 4.9 7.8 11.9 10.2 15.8 2.5 3.8 5.7 8.6 7.3 10.6 1.6 2.1 3.1 5.5 3.4 7.8.7 5.2.3 5.6-22.3 23.3-9.4 7.3-16.4 12.5-20.8 15.3-1.7 1.1-5.7 3.9-8.7 6.2-3.1 2.3-9 6.3-13 8.9-4.1 2.6-7.6 5-7.9 5.3-1.1 1.3-7 5.1-7.8 5.1-.5 0-3.1 1.7-5.8 3.8-9.6 7.4-30.5 18.6-39.4 21.1-2.5.7-7 2-10 2.9-4.2 1.3-9.2 1.7-20.5 1.7-13.8-.1-15.6-.3-22-2.7-12.6-4.8-18.5-3.8-18.5 3.3 0 3.2.7 4.6 3.5 7.5 1.9 1.9 3.5 3.6 3.5 3.7 0 .1-2.2 2.6-5 5.6-2.7 2.9-4.7 5.7-4.5 6.2.3.4-1.6 2.2-4.2 4-2.7 1.8-5 3.6-5.3 4-.3.3-2.3 1.6-4.5 2.8-3 1.6-5.7 2.1-11.5 2.1-8 0-18 2.1-21.7 4.6-2.5 1.6-3.1 3.6-1 3.3.6-.1 1.9.1 2.7.4 5 2 9.6 2.5 14.3 1.6 3.1-.6 5.3-.6 5.6 0 .4.5 2.4 1.1 4.6 1.3 2.7.2 4 .8 4.1 1.8.1 2.3-1.6 4-4 4-1.4 0-3 1.4-4.8 4.5-2.6 4.3-9.7 9.2-11.2 7.7-1.2-1.1-10.1-3.1-10.6-2.2-.3.4-2.7 1.1-5.5 1.5-2.7.4-6.3 1.4-7.8 2.2-1.6.8-6.1 1.7-10 2-8 .5-13.7 2-13.7 3.4 0 .5-1.1.9-2.5.9-2.3 0-3.1 1.3-2.6 4.2 0 .5-.4.8-1 .8-.5 0-.7.5-.4 1 .4.6 2.1.8 4 .4 2.1-.4 3.5-.1 4 .7.7 1-1.4 1.1-9.5.5-5.7-.3-10.9-1.1-11.6-1.7-1.5-1.3-6.9-.7-10.6 1-2 1.1-2.8 2.3-3.3 5.8-.3 2.4-1.6 5.4-2.7 6.5-1.7 1.7-2.8 1.9-7.2 1.4-4.7-.6-5.4-.4-7.5 1.8-1.7 1.9-2.4 3.6-2.3 6.3.2 4.2.8 5 4.2 5.5 2.2.3 2.5.8 2.5 4.2 0 3.1-.4 4-2 4.2-1.1.2-2.1.8-2.3 1.3-.2.6-1.2 1.1-2.3 1.1-1.2 0-2.3 1-2.9 2.5-1.4 3.6-9.5 4.9-8.8 1.3.2-.7-1.6-1.9-4-2.7-5.2-1.9-7.6-.8-8 3.8-.2 1.9-.8 3.1-1.5 2.8-.7-.2-3 .2-5.1 1-4.3 1.5-7.1 1-8-1.2-.3-.8-1.5-1.5-2.6-1.5-2.2 0-2.7-1.5-.9-2.6.6-.3.9-1.4.6-2.5-.3-1 .3-2.5 1.3-3.4 1.8-1.7 3.4-6.9 1.8-5.9-.5.3-.6-.5-.3-1.9.5-1.8.1-3.1-1.4-4.6-1.2-1.2-2.1-3.1-2.1-4.4 0-2.7 2.8-7 4-6.2.5.3 1.5-.9 2.3-2.7 3.4-7.5 3-10.7-1.7-15.2-1.3-1.2-3.1-4.8-4.2-8.1-2.3-7.4-4.6-8.8-11.8-7.4-5.8 1.1-9.2 3.9-10.1 8.3-.4 1.7-1.6 4.7-2.7 6.6-1.2 2-2.1 5.5-2.2 8.1-.1 3.4-.7 5.3-2.6 7.2-2.7 2.8-4 2.7-4-.4 0-1-.5-1.9-1-1.9-.6 0-.6-.7.1-1.9 1.8-2.8.5-5-2.7-4.6-5.6.6-7.6 7.8-3.2 11 1.8 1.2 2 2 1.4 7.9-.7 6.2-.6 6.5 1.8 8.1 1.4 1 2.6 2.3 2.6 3 0 .7.7 1.5 1.5 1.9.8.3 1.5.9 1.4 1.3-.5 3.5 5.3 8.7 9.8 8.8 1.2.1 3.6.8 5.5 1.7 1.8.9 4.5 2.1 6 2.7 1.8.6 2.8 1.8 2.8 3 0 1.1.8 2.5 1.8 3 1.4.9 1.5 1 .1 1.1-.9 0-2.6.8-3.8 1.9-3.2 2.8-14.7 2.8-16.1 0-1.3-2.3-3-2.5-3-.4 0 .8-.4 1.5-1 1.5-1.7 0-1.1-2.5 1-4 1.9-1.4 2.9-4.7 1.1-3.6-.5.4-1.1.2-1.3-.3-.5-1.2-7.8-2.4-7.8-1.2 0 1.4-5.3.8-5.8-.7-.2-.6.4-1.2 1.3-1.2s1.3-.5 1-1.1c-.9-1.4-8.5-.1-10.8 1.9-1 .9-1.5 2.2-1.3 2.9.6 1.5-3.3 3.8-4.4 2.6-.5-.4-1.1-2.2-1.3-3.8-.3-1.7-.3.6 0 5 .3 5.1 1.2 9.4 2.4 11.8 1.1 2.1 1.7 4.2 1.4 4.7-.3.5-.1 1.1.4 1.5.6.3 1.5-1.2 2.1-3.4 1.1-4 3.3-7.1 5.1-7.1 1.8 0 5.1-3.8 4.9-5.6-.4-3.2-.1-3.6 1.6-1.9 1.4 1.3 1.4 2 .3 4.8-.7 1.8-1.5 3.4-1.9 3.7-2.6 2.3-4.4 16-1.9 14.4.8-.4.9.1.4 1.6-.8 2.6 1.2 4.5 3.1 2.9.8-.7 1.4-.7 1.8 0 .4.6 1.3.8 2 .5 2.8-1.1 4.6 2.4 4.2 8.3-.3 4.4 0 5.9 1.5 7.4 1 1 1.9 2.6 1.9 3.4 0 .9 1 1.6 2.8 1.7 5.2.3 5.7.4 6.8 1.1.7.4 1.5 2.2 1.8 4.1.4 1.9 1.4 4.5 2.4 5.7 1 1.3 2.4 3.7 3.2 5.3.8 1.6 3.1 4.6 5.2 6.8 2.9 3.1 4.3 3.9 6.5 3.6 2.7-.3 2.8-.5 2.5-5.4l-.4-5.1 5.4.1 5.3.1.3 3.7c.2 2.2-.1 3.8-.7 3.8s-1.1.7-1.1 1.5c0 .9-.9 1.5-2.2 1.5-3.9 0-5 1.3-3.9 4.3.8 2.1 1.7 2.7 4.1 2.7 2.3 0 3.3.6 4.2 2.5.7 1.7 1.9 2.5 3.5 2.5 1.3 0 2.2.4 1.9.9-.3.5.8 1.1 2.4 1.5 4.4.8 3.7 2-2.2 3.4-2.8.6-5.5 1.8-6 2.4-1 1.6 4.3 6.4 8.8 7.8 1.7.6 4.6 2.9 6.4 5.1 1.8 2.3 5.3 5.1 7.9 6.3 2.5 1.1 7.8 4.2 11.7 6.9 4 2.6 8.6 5 10.3 5.3 1.8.4 4.5 1.9 6 3.5 1.6 1.6 4.8 3.6 7.2 4.5 2.4 1 5.5 2.5 6.9 3.4 1.4 1 3.6 2.1 5 2.5 1.4.4 4.1 1.7 6 3 1.9 1.3 5.3 2.9 7.5 3.6 2.2.7 4.7 1.9 5.6 2.6.8.7 1.9 1.3 2.3 1.3.4 0 2.8 1.7 5.3 3.7 2.5 2.1 6.4 4.7 8.7 5.8 2.2 1.1 5.3 3.8 6.8 6 2.5 3.7 2.7 4.3 1.7 8.8-1 4.5-.9 4.9 1.8 8.1 1.5 1.8 4.4 5.5 6.3 8.1 1.9 2.6 5.4 6.8 7.6 9.4 2.3 2.5 5.2 6.8 6.4 9.6 1.2 2.7 2.6 5.9 3.2 6.9.5 1 1.2 5.3 1.4 9.5.3 4.2.7 10 1 12.8l.5 5.3h4c3.2 0 3.9.3 3.7 1.7-.5 3.2-4.8 5.7-4.8 2.8 0-.8-.4-1.5-.9-1.5-2.2 0 .4 5.2 3.6 7.1 3.2 2 3.6 2.1 4.5.6 1.3-2.4 5.8-2 9.1.7l2.9 2.3-3 2.1c-2.3 1.7-3.5 4-5.7 10.9-4.4 13.9-6.4 24.2-6.5 32.3 0 7.8-2 21.1-4 26.7-2.2 6.2 2.1 15.2 9.2 18.9 1.9 1 6.2 1.4 14.1 1.4 12.8 0 12.2-.3 17.2 8.5 3.8 6.7 6.8 9.5 10.2 9.5 1.5 0 5.5 1.3 8.8 2.8 3.3 1.6 8 3.2 10.5 3.6 2.5.3 7.9 1.7 12 3.1 4.1 1.3 12.5 2.8 18.5 3.4 6.1.6 13.8 1.9 17.1 3 5.2 1.7 10.4 2.1 36 2.6 41.2 1 45.8.1 50.8-9.6 1.7-3.1 3.9-6.2 5-6.9 1.4-.9 8-1.4 20.5-1.7 16.3-.3 19.4-.7 25.6-2.8 3.8-1.3 8.8-2.7 11-3 7.5-1.1 8.5-1.5 11.4-4.3 1.6-1.5 4.8-4.5 7.1-6.7 7.3-6.8 9-10.4 8.8-18.2-.1-5.6.3-7.8 2.5-12.2 3.3-6.8 3.4-11.6.3-17.2-1.4-2.4-2.7-6-3-7.9-1-6.9-1.9-29.8-1.2-33.3.9-4.6 4.7-9.3 8.3-10.2 1.6-.3 5.6-2.4 9-4.6 6.7-4.4 8.7-7.5 9.9-15.4 1.3-9.2 8.9-21.7 21-34.7 2.9-3.2 7.4-9.1 10-13 2.5-4 5.4-8.3 6.3-9.6.9-1.3 3-4.3 4.6-6.7 4.1-5.8 14.4-13.5 18.2-13.5 1.5 0 9.3-1.8 17.3-4s15.7-4 17.3-4c1.5 0 5.5-1.2 8.9-2.6 3.4-1.4 8.8-3 12.1-3.5 3.3-.6 7.6-1.8 9.6-2.8 2-1 5.9-2.2 8.6-2.6 2.8-.4 7.5-2 10.5-3.6s6.4-2.9 7.5-2.9c1.1 0 4.5-1.3 7.5-3 3-1.6 6.3-2.9 7.4-3 1 0 3.9-1.1 6.5-2.4 2.5-1.4 6.6-3.4 9.1-4.5 2.5-1.2 5.6-2.7 7-3.5 1.4-.7 4.3-2.3 6.5-3.4 10.5-5.4 14.3-7.7 17.3-10.4 1.8-1.6 5.4-3.9 8-5.2 8.7-4.2 12.9-7.3 24.1-17.6 2.1-1.9 8.4-7.8 14.1-13 5.7-5.2 12.5-12.4 15.2-16 2.7-3.6 5.9-7 7.1-7.7 2.4-1.2 5.8-5.6 13.4-17.1 2.6-4.1 6.9-9.6 9.6-12.4 4.7-5 5.1-6.2 4.7-13.6-.1-2.8.3-3.4 2.8-4.3 3.2-1.1 8.6-7.1 10.2-11.4.6-1.5 1-4.6 1-7.1s.7-5.8 1.5-7.4c.8-1.6 2.2-7.9 3-13.9.9-6.1 2.2-12.7 2.9-14.8 2.3-6.6 3.7-16.3 4.6-32.3.5-8.5 1.2-17.1 1.5-19.1.5-2.3.1-5.4-1-8.5-2-5.8-1.3-16.4 1.1-16.4 2.6 0 3.6-10.5 2.1-23.7l-.8-7.2 3.4-.6c7.8-1.5 13.2 2.7 14.6 11.4.4 2.4 1.2 3.7 2.4 3.9 1.7.4 1.7.2.3-2.6-1.2-2.3-1.3-3.7-.5-6.6 1.2-4.2.7-5.1-5.8-12.3-2.2-2.5-6.1-5.3-9.5-6.7-5.6-2.5-5.7-2.5-8.1-.6-3.4 2.7-3.9 2.6-6.2-1.7-2.6-4.9-4.6-5.1-9.7-1.4-4.3 3.2-7.6 4.2-6.1 1.8.4-.6.8-1.4.8-1.7.4-2.5 2-4.9 4-6 1.4-.7 2.5-1.7 2.5-2 0-.4 1.3-2.4 2.9-4.4 2.5-3.1 2.8-4.1 2.1-7.2-1.5-6.3-7.9-11.1-12.7-9.3-1.2.4-3.6 2.7-5.3 5.1-1.6 2.4-3.7 5.2-4.5 6.3-.9 1.1-2.3 3-3.3 4.3-1.2 1.6-3.2 2.5-6.1 2.9-2.5.3-6 1.7-7.9 3-4.9 3.2-8.9 3.1-10.4-.5-.7-1.5-2.4-4-3.9-5.5-1.9-2-2.8-4.3-3.3-8.3-.3-3.1-2.2-11.7-4.2-19.2-2.1-8-3.8-17.2-4.1-22.2-.7-10.4-2-12.5-7.5-11.6-2.2.4-5.3 0-7.5-.8-2.1-.8-8.5-2.6-14.3-4-5.8-1.5-13.6-3.6-17.5-4.7-3.8-1.1-9-2.5-11.5-3-2.5-.6-5.4-1.4-6.5-1.9-3.1-1.4-8.6-2.9-12.6-3.5-5.5-.8-6.4-2.5-4.5-8.2.9-2.6 2.7-6.3 4-8.3 1.8-2.6 2.8-6.5 4.2-15.4 1.5-10.5 1.6-13.3.5-23-1.4-12.2-2.2-16.4-4.5-24.6-2.1-7.6-1.5-9 3.9-9 2.4 0 5.5.4 6.9 1 4.1 1.5 21.1 4 27.3 4 6.9-.1 14.1-1.4 15.5-2.8.7-.7.6-2.1-.3-4.5-1-2.8-1-5.5 0-13.4 1.9-15.9 2.9-30.1 3.5-47.5.3-9 .9-17.9 1.5-19.8.5-1.9 1.2-10.5 1.4-19.1.5-14.7.7-15.9 3.1-19.5 1.7-2.8 2.6-5.8 3-10.4.3-3.6 1.7-10.1 3.1-14.5 2.7-8.7 3-12.2 1.6-17.2-.7-2.4-.6-3.5.3-4 .7-.5 1.9-1.9 2.6-3.3.7-1.3 2.3-3.2 3.5-4.2 4.1-3.2 3.7-10.1-1.2-23.6-2.2-5.8-1.2-14.6 1.9-17.9 2-2.1 2.3-3.5 2.3-9.6 0-5.8.5-8.3 2.8-13 3.2-6.8 3.3-7.8.8-10.8-1.8-2.2-2-2.2-2.6-.7-.5 1.3-1.8 1.8-4.4 1.8h-3.8l.2-5.6c.2-3.1.7-5.9 1.3-6.3.7-.4.4-1.1-.8-1.9-1.6-1-2-1-2 .1 0 2.9-3.5 4.7-8.6 4.5l-4.9-.3-.3 7.5c-.3 8.2-1.4 10-6.3 10-2 0-3-.7-3.9-3-1.7-4.1-.5-7.7 3.6-11.3 1.8-1.7 3.4-3.6 3.4-4.3 0-.7 1-2 2.1-2.8 1.2-.8 2.7-2.5 3.3-3.7.8-1.6 2-2.3 4-2.4h2.9l.3-8.3c.2-4.5.8-10 1.3-12 .6-2.1 1.3-7.8 1.7-12.7.3-5 1-10.4 1.5-12 1.2-4.1-2.8-17.8-7.2-24.6-3.6-5.7-10-10.9-13.4-10.9-1.2 0-2.9.8-3.8 1.8zm15.2 108.3c2.1 2 2.1 2.2.5 4-2.8 3.1-4.4 2.4-4.4-2.1s.7-4.9 3.9-1.9zm-17.5 5.5c.3.9.6 3.2.6 5.1 0 2.8-.7 4.3-3.2 6.5-4.8 4.3-6.1 3.8-5.6-2.2.4-3.8 1.2-5.8 3.3-8 3.3-3.4 4-3.6 4.9-1.4zm-8.8 25.1c1.7 2.3 1.8 7.2.1 7.9-.7.2-2.6.6-4.2.7-2.7.2-3-.1-3.3-3-.6-6.2 4.2-9.8 7.4-5.6zm-10.6 22.4c0 1.5-.9 3.8-2.1 5.2-1.1 1.5-2.2 3.7-2.4 4.9-.9 4.6-8.5 8.1-8.5 3.9 0-1 .9-3 2-4.4 1.1-1.4 2-3.2 2-4 0-.9.6-2.2 1.3-2.9.7-.7 2.3-2.8 3.6-4.6 2.6-3.7 4.1-3 4.1 1.9zm-15.2 29.1c.3 2.7-1.9 8.1-3.8 9.3-1.7 1-4-1.5-4-4.2 0-3.3 3.8-8.5 5.9-8.1.9.2 1.7 1.5 1.9 3zm54.2 15.2c0 1.9-3.2 3-4.2 1.4-1.3-2.1-.9-2.8 1.7-2.8 1.5 0 2.5.6 2.5 1.4zm-719.4 9.8c.3.4 0 .8-.5.8-.6 0-1.1.8-1.1 1.9 0 1-.9 2.1-2 2.4-2.4.6-6-.2-6-1.4 0-.5-.9-.9-2.1-.9-3 0-1.8-2.4 1.7-3.1 4.1-.9 9.4-.7 10 .3zm644.1 24c-.3.8-.6.5-.6-.6-.1-1.1.2-1.7.5-1.3.3.3.4 1.2.1 1.9zm-5.3 14.7c-.6 2.6-.9 3-1.6 1.8-1.1-2 .1-7.2 1.3-6 .5.5.6 2.4.3 4.2zm-447.6 8c1.6 2.7 2.8 5.2 2.4 5.5-.3.3-2 .6-3.8.6-3.5 0-7.4 3.1-7.4 5.9 0 4.1-6.4 6.7-9 3.6-1-1.2-.6-2.4 2.4-6.5 2-2.7 3.6-5.3 3.6-5.7 0-.9 7.2-8.3 8.1-8.3.3 0 2 2.2 3.7 4.9zm-100.8 8.2c0 2.2-.6 3-2.5 3.5-3.6.9-5.5-.2-5.5-3 0-2.9 2.2-4.5 5.6-3.8 1.9.3 2.4 1.1 2.4 3.3zm115.8 2.2c1.9 2.1 2.6 3.8 2.3 6.4-.1 1.1-2.5 1.8-8.3 2.7-2.3.3-2.9.9-3.2 3.7-.5 4.8-1.6 5.9-5.7 5.9-2.8 0-3.9-.4-3.9-1.5 0-2.1 4-9.4 5.7-10.4.9-.4 1.7-2.8 2-5.4.4-3.1 1.1-4.7 2.2-5 2.5-.5 6.6 1.2 8.9 3.6zm-94 9.4c-.3 2.7-.5 2.8-5.8 2.8-4.8 0-5.5-.3-5.5-2 0-2.1 2.8-3.2 8.3-3.4 3.1-.1 3.3.1 3 2.6zm109 1.4c.4 2-3.6 6.9-5.8 7.2-.8.2-2.1.6-2.7 1-2.2 1.4-3.3-.3-3.3-4.8 0-5 .7-5.5 7-5.2 3.3.1 4.6.6 4.8 1.8zm-95.8 6.4c1 1.2 1 2.1.2 4-.9 2-1.9 2.5-4.6 2.5-3 0-3.5-.3-3.4-2.3.3-4.8 5.2-7.4 7.8-4.2zm111.4 4.1c.9.3 1.6 1.1 1.6 1.8 0 .6 1.3 2.7 3 4.6 3.2 3.8 3.9 8 1.5 10-1.7 1.5-3.3.6-4.5-2.6-1.5-3.8-5.4-3.1-10.1 1.6-6.1 6.2-9.1 4.9-8.3-3.5.8-8.7 9.4-14.7 16.8-11.9zm-29.9 1.4c-.3.5-1 1-1.6 1-.5 0-.9-.5-.9-1 0-.6.7-1 1.6-1 .8 0 1.2.4.9 1zm-69.3 7.8c1.1 4-.2 6.7-4 8-5.8 2-7.6-3-3.5-9.6 2.2-3.6 6.4-2.7 7.5 1.6zm123.8 15.7c1 1.3 1 1.9-.5 3.5-1 1.1-2.4 2-3.2 2-.7 0-1.6.7-1.9 1.5-.4.8-1 1.3-1.4 1-1-.6-.1-4.5 1.1-4.5.5 0 .9-.6.9-1.3 0-1.4 1.9-3.7 3.1-3.7.4 0 1.2.7 1.9 1.5zm-96.5 7.2c1.6 4.2 1.5 6.2-.5 7.3-2.8 1.5-4 .5-4-3.4 0-4.7 3.1-7.4 4.5-3.9zm107.8 3c1.1 1.9-1.2 5-3.7 5-2.8 0-3.5-2.4-1.4-4.5 1.3-1.3 4.4-1.6 5.1-.5zM971 1114c-.9 1.7-3 2.8-3 1.6 0-1.6 1.5-3.6 2.6-3.6 1.2 0 1.2.4.4 2zm35.4 9.2c1.2 3.5.7 3.9-4.9 4.5-4.5.6-4.5.5-4.5-2.5 0-5.6 7.6-7.2 9.4-2zm-108.4.7c0 2.3-.9 3.1-2.6 2.4-1.7-.6-1.8-2.5-.2-4.1 1.4-1.4 2.8-.6 2.8 1.7zm596 204.7c0 .8-.9 1.4-2 1.4-2.2 0-2.3-.1-1.4-2.4.7-1.8 3.4-1 3.4 1zm30.4 5.8c1.4 2.2 1.4 2.7 0 5.5-.8 1.6-2.1 2.8-2.7 2.5-1.9-.7-5-7.1-4.4-8.8 1-2.5 5.3-1.9 7.1.8zm-25.7 14.7c.6 6-.9 11.9-3 11.9s-5.7-4.4-5.7-6.9c0-2.7 3.2-10.4 5.2-12.9 1.7-2 2.9.7 3.5 7.9zm-37.7-.5c0 .8-.4 1.2-1 .9-.5-.3-1-1-1-1.6 0-.5.5-.9 1-.9.6 0 1 .7 1 1.6zm-557.6 48.7c-.8 3.6-2.9 3.4-4.8-.5-2-3.9-2-3.6.7-4 3.2-.6 5 1.4 4.1 4.5zm56.1 22.5c10.6.9 22 4.6 22 7.2 0 .7.6 1.5 1.3 1.7.6.3 1.2 0 1.2-.6 0-.7 3.9-1 12.2-.7 10.4.3 12.4.6 13.6 2.2 1.7 2.4 1 8.7-1.3 11-1.5 1.6-2.2 1.5-10.4-.5-4.8-1.1-9.5-2.1-10.4-2.1-1 0-2-.7-2.3-1.5-.4-.8-1-1.2-1.5-.9-.5.3-.9-.6-.9-2 0-3.2-3.6-4-12.9-3.1-5.1.5-7.6.3-9.7-.8-3-1.5-9.9-3.2-16.8-4.2-4.5-.6-6.6-2-6.6-4.5 0-2.7 1.2-3.2 7-2.6 3 .4 10 1 15.5 1.4zm-42.5.7c0 .8-.4 1.5-1 1.5-.5 0-1-.7-1-1.5s.5-1.5 1-1.5c.6 0 1 .7 1 1.5zm-16.3 1.6c2.4.8 3 1.5 2.5 3.1-.3 1.2-1.3 2.9-2.3 3.9-1.5 1.5-1.6 2.3-.6 5.6.6 2.1 1.7 4.6 2.5 5.5 2.1 2.5.8 5.1-2 4.2-6.3-2-8.5-6.5-5.3-11.1 1.1-1.6 1.2-2.8.4-5.1-.7-2.2-.7-3.7.1-5.1 1.3-2.5.9-2.4 4.7-1zm-48.7 13.8c0 .8-5.2 2.3-5.9 1.6-.1-.2 0-.8.4-1.4.8-1.3 5.5-1.5 5.5-.2zm164 .6c0 .9-.6 1.2-1.5.9-.8-.4-1.2-1-.9-1.5.8-1.4 2.4-1 2.4.6zm22.2 1.9c4.5 1.1 4.7 1.3 3.5 3.6-.7 1.4-2.8 3.3-4.7 4.2-6.2 3-11.8 2.1-18.8-3-2.5-1.9-3-2.8-2.1-3.8 1.9-2.3 14.8-2.9 22.1-1zM911 1454c1.3.9 1.2 1.2-.4 2.5-2.5 1.9-5.3.1-3.5-2.1 1.4-1.7 1.9-1.7 3.9-.4zm-24.2 17.3c.4 4.1-2.1 8.2-6 10.1-1.2.6-2.6 2.6-3.1 4.3-.7 2.2-1.9 3.5-3.8 4.2-3.2 1.1-3.6 2.3-1.4 4.1 3.5 2.9 1.2 6.7-7.9 13.3-1.9 1.4-1.8 1.5 1.4 4.7 3.4 3.4 3.4 3.4-1.3 6.1-2.3 1.3-5.4.3-6.2-2-1.2-3.9-9.1-3.4-10.6.7-1.3 3.4-3.8 5.1-7.4 5.2-3.2 0-5.9 2.3-9 7.7-2.4 4.2-9.5 6.4-19 6.1-6.5-.3-7.3-.1-11.3 2.9-3.7 2.7-12.2 5.5-16.9 5.6-2.7.1-1.1 4.1 3.9 9.8 2.9 3.2 5.8 5.9 6.5 5.9.7 0 1.3.9 1.3 2 0 2.7-3.6 4-11 4-4.9 0-6.1-.3-7-2-.6-1.1-1.7-2-2.5-2s-2.6-1.6-4.1-3.5c-1.5-1.9-3.8-3.8-5.3-4.2-3.1-.7-6.9-4.5-7.7-7.7-.7-2.9-3.1-4.1-11.7-6.1-6.8-1.5-6.9-1.5-9.7.7-1.6 1.3-3.4 3.5-4 5-1.2 2.6-1.3 2.7-3.9 1.1-3.7-2.3-7.1-5.5-8.3-7.7-.7-1.3-.7-1.6.1-1.2.6.4 1.1 0 1.1-.8 0-.9.7-1.6 1.5-1.6 2.3 0 1.8-1.3-1.4-3.5-5-3.3-5-7.5 0-10 1.5-.8 3.5-3.1 4.5-5 1.6-3.4 1.6-3.4 3.9-1.7 2.9 2.1 4.5 5.4 4.5 9.2 0 2.1.9 3.6 3.4 5.5 1.9 1.4 3.7 3.7 4 5 .6 2.4.9 2.5 9.9 2.5 5 0 9.8.4 10.6.9.8.5 2.4.3 4-.5 1.4-.8 5.4-1.4 8.9-1.4 4.7 0 7.4-.6 11-2.5 4.2-2.2 9.2-3.2 17.3-3.4 1.4-.1 4.3-1.4 6.3-3s5.1-3.2 7-3.5c1.9-.4 4-1.4 4.7-2.3.8-.8 3.4-2.4 5.9-3.5 2.4-1.1 5.3-2.8 6.3-3.9s3.2-2.2 4.7-2.6c2.9-.5 10-6.5 10-8.3 0-.5 1.7-1.8 3.8-2.9 2-1.1 4.5-2.9 5.4-4 1-1.2 4-3.5 6.6-5.1 4.1-2.5 4.9-3.5 5-6.1.1-3.3 2.6-6.9 4.8-6.9.7 0 1.5-1 1.9-2.3 1.8-6.3 4.4-9.5 7.9-9.3 1.7.1 2.2.9 2.4 3.9zm19.2.7c0 .9-4.2 2.2-4.8 1.5-.3-.3.1-1.1.7-1.9 1.2-1.4 4.1-1.2 4.1.4zm-169.5 16.1c-.5.7.7.8 3.9.4 4.1-.7 4.6-.5 4.6 1.2 0 2.1-4.7 5.3-7.7 5.3-3.9 0-5.5-3.7-2.7-6.4 1.8-1.8 2.8-2.1 1.9-.5zm-10.5 5.4c1.3 1.4 2.9 2.5 3.6 2.5 2.7 0 0 3-3.6 4.1-4.6 1.4-7 .7-7-2.1 0-2.2 2.7-7 3.9-7 .4 0 1.8 1.1 3.1 2.5zm26.4 6.1c1.6.6 2.3 4.4.9 4.4-.5.1-2.1 1.1-3.7 2.4-2.7 2.3-2.8 2.6-1.6 5.5 1.5 3.8 1.1 4.4-2.3 3.6-2.2-.6-2.5-1.1-2.1-3.5.5-2.3.1-3.2-2.3-5-4.1-3-3.8-6.3.8-7.1 4.8-.9 8.5-1 10.3-.3zM682 1502c0 .7-2.4 2-3.6 2-.2 0-.4-.9-.4-1.9 0-1.4.5-1.8 2-1.4 1.1.3 2 .9 2 1.3zm31.4 2.5c.3.8.1 1.5-.4 1.5-.6 0-1-.7-1-1.5s.2-1.5.4-1.5.6.7 1 1.5zm12.6 4.8c0 2.7-1.7 4.7-4 4.7-2 0-7.8-6.2-6.3-6.7.6-.2 1.9-1 2.9-1.7 2.6-2 7.4.5 7.4 3.7zm40 4.1c0 .3-.4.8-1 1.1-.5.3-1 .1-1-.4 0-.6.5-1.1 1-1.1.6 0 1 .2 1 .4zm-77.8 4.4c.2.5 2 1.2 4 1.5 2.9.4 3.8.2 4.1-1.1.2-1.2.9-.7 2.6 2 1.3 2.1 2.7 3.9 3.2 3.9.5.1 1.3.2 1.8.3 1.8.2 2.5 1.7 2.8 6.4.2 4.1-.1 4.9-2 5.7-1.2.6-2.6 2.5-3.2 4.2-1 3.5-3.5 4.6-3.5 1.5.1-.9.7-3.4 1.4-5.5.8-2 1-3.7.5-3.7s-.9-1.1-.9-2.5c0-2.1-.5-2.5-2.8-2.5-2.9 0-5.8-3.3-5.4-6.1.2-1.1-.7-1.9-2.3-2.3-1.4-.4-2.5-1.1-2.5-1.6 0-1.2 1.7-1.3 2.2-.2zm-8.5 1.8c-.3.3-1.2.4-1.9.1-.8-.3-.5-.6.6-.6 1.1-.1 1.7.2 1.3.5zm8.4 1.9c-.1 1.5-2.4 1.2-2.9-.3-.3-.9.2-1.3 1.2-1 1 .1 1.7.7 1.7 1.3zm112.9 42c0 .8-.4 1.5-.9 1.5-1.3 0-2.2-1.6-1.4-2.4 1.1-1.1 2.3-.6 2.3.9zm-45 31.5c0 .5-1.3 1-3 1-1.6 0-3-.5-3-1 0-.6 1.4-1 3-1 1.7 0 3 .4 3 1zm276.4 106.4c4.3 1.8 4.6 3.4 4.4 20.8-.2 13.4-.1 13.7 2.5 17.6 1.5 2.1 3.8 4.4 5.1 5 1.3.6 3.3 3 4.5 5.5 1.9 3.8 2 5.1 1.2 8.8-.6 2.4-1.1 6.2-1.1 8.4s-.4 4.6-.8 5.2c-1.5 2.4-10.7 8.3-12.9 8.3-4.6 0-7.5-6.1-5.5-11.4 1-2.7.8-3.8-1.8-9.4-2.3-5-3.3-9.2-4.5-18.8-.7-6.8-1.8-13.2-2.4-14.2-.5-.9-1.5-5.1-2.1-9.2-.7-4.1-1.4-8.9-1.7-10.7-1-6.4 6.7-9.4 15.1-5.9zm-117.9 59.5c.7 1.3-3.3 3.4-5.1 2.7-.8-.3-1.4-1.2-1.4-2.1 0-1.7 5.5-2.2 6.5-.6zm248.9 15.4c1.8 1.3 1.8 1.8.3 9.8-.9 4.6-1.9 10.1-2.3 12.1-.7 4-2 4.9-3.1 2-.4-.9-1.5-2.4-2.5-3.2-.9-.8-1.9-2.7-2.2-4.3-.8-4.7 4.6-17.7 7.4-17.7.3 0 1.4.6 2.4 1.3zM800.2 805.7c.2 1 1.3 1.9 2.6 2.1 3 .5 2.8-1.2-.4-2.7-2.2-1-2.5-.9-2.2.6zM818.3 827.5c0 1.7.5 2.5 1.7 2.5 1.6 0 1.7-.3.7-2.5-1.5-3.2-2.4-3.2-2.4 0z"/><path d="M1051.5 848.1c-1 1.5.1 2.3 2 1.5.9-.3 1.3-1 1-1.6-.8-1.3-2.2-1.3-3 .1zM1030.8 853.7c-2.1.5-3.1 3-1.6 3.9 1.3.8 7.2.7 10.1-.2 2-.6 2-.7-.4-2.5-2.3-1.8-4.6-2.1-8.1-1.2zM1227.4 867c-1.2.5-3.4 2.5-5 4.5-1.5 2-4.6 4.9-6.8 6.5-2.3 1.5-7.6 6.2-12 10.3-5.5 5.4-8.8 7.8-11.1 8.1-4.8.8-6.1 1.5-7.5 4.2-.7 1.3-1.7 2.4-2.2 2.4-.5 0 0 1 1.2 2.2 2.5 2.8 2.5 3-.5 5.6-1.4 1.2-2.5 3-2.5 3.9-.1 3.4-4.5 7-11.7 9.7-4 1.5-7.5 3.1-7.8 3.6-.3.4-2.9 1.4-5.7 2-2.9.7-5.7 1.9-6.1 2.6-.4.8-1.2 1.4-1.7 1.4-1.7 0-6 4.3-6 6 0 .9-.6 2.2-1.2 2.9-1.1 1-.3 1.1 3.7.7 6.7-.7 10.8-2 15.3-4.8 2-1.3 4.4-2.8 5.3-3.3 7.6-4.8 13-8.8 13.9-10.5.6-1.1 3.5-3.1 6.6-4.6 3-1.4 6.2-3.7 7.1-5 .8-1.3 1.9-2.4 2.4-2.4 2 0 34.9-34.4 37.6-39.3 1.3-2.3.8-5.7-1.1-6.9-1.3-.9-1.5-.9-4.2.2zM1452.1 873.6c0 1.1.3 1.4.6.6.3-.7.2-1.6-.1-1.9-.3-.4-.6.2-.5 1.3zM1154 912.5c-3.1 1.1-6.7 2.7-8 3.6-1.4.9-4.7 2-7.5 2.4-2.7.4-5.4 1-6 1.5-1.3 1-13.5 4-16.2 4-1.2 0-2.8.7-3.7 1.5-.8.8-2.2 1.5-3 1.5-.9 0-1.6.4-1.6 1 0 .5-1 .9-2.2.9-3.8-.2-16.1 1.2-19.8 2.2-1.9.5-4.8 1.8-6.5 2.9l-3 2 6 .1c18 .2 23-.6 28.3-4.5 3-2.1 4.4-2.4 14-2.5 12.6-.2 14.8-.6 18.5-3.8 1.6-1.2 3.2-2.3 3.6-2.3.4 0 2.4-1.5 4.5-3.3 2.6-2.4 4.8-3.4 7.3-3.5 4.2-.2 5.6-1.2 4.8-3.4-1-2.5-3.5-2.6-9.5-.3zM882.8 924c-2.9 1.8-2.3 6.8 1.3 10.1 1.7 1.6 3.5 2.9 4.1 2.9.5 0 2.9 1.3 5.2 2.9 2.3 1.6 7.3 4 11 5.2 3.8 1.2 7.6 3 8.4 4 1 1.2 3 1.9 4.9 1.9 3.2 0 4.3-1.2 2.3-2.5-1.6-1-1.2-4 .8-5.8 1.4-1.3 3.9-1.7 10.8-1.7 13.8 0 15.4-2.5 3-5-3.3-.7-7.6-1.9-9.4-2.7-1.7-.7-5.6-1.6-8.5-1.9-2.8-.3-9-2.1-13.7-3.9-9.5-3.7-17.6-5.1-20.2-3.5zM1072.8 937.7c.7.3 1.6.2 1.9-.1.4-.3-.2-.6-1.3-.5-1.1 0-1.4.3-.6.6zM1033.4 942c-2.1.8-22.8 1.3-52.8 1.1-8.7 0-16.3.2-16.8.5-2.3 1.4 2.1 2.2 12.7 2.3 10.9.1 18.9 1.1 25.1 2.9 1.9.6 5.3.6 9 0 3.2-.5 11-1.5 17.3-2.2 6.2-.8 11.6-1.8 12-2.3.3-.4 1.7-1.4 3.1-2 2.3-1.1 2.1-1.2-2.5-1.2-2.7 0-6 .4-7.1.9zM1134.7 944.6c-1.3 1.3-.7 2.4 1.4 2.4 1.1 0 1.9-.5 1.7-1.2-.5-1.4-2.2-2.1-3.1-1.2zM1105 950.7c-4.1.2-8.4.8-9.5 1.3-1.1.5-5.6 1.6-10 2.4-10.3 1.9-14.2 3.3-12.8 4.7 2.4 2.4 30.6.4 34.1-2.4.7-.6 3.4-1.6 6-2.2 5.4-1.4 7.3-4.6 2.5-4.3-1.5.1-6.2.3-10.3.5zM1051 962.5c-3.4 1.4-3.3 1.4 4 1.2 4.2-.1 7.5-.6 7.5-1.2 0-1.6-7.6-1.6-11.5 0zM1009.2 964.8c-1.1 1.1-2.8 2.5-3.8 3.1-1.5.8-.5 1 4.7 1.1 8.3 0 13.6-.9 11.7-2.1-1-.7-.9-.9.5-.9.9 0 1.7-.5 1.7-1 0-.6-1.2-1-2.7-1-1.6 0-4.4-.3-6.4-.6-2.9-.5-4.1-.2-5.7 1.4zM746.2 973.7c-2 .8 1.7 3.2 4.9 3.3 3 0 4.6-2.5 2.3-3.4-1.8-.7-5.4-.7-7.2.1zM704 975c0 .5 1.8 1 4 1s4-.5 4-1c0-.6-1.8-1-4-1s-4 .4-4 1zM781.3 978.4c.4 1 .7 2.1.7 2.6s1 1 2.2 1.2c1.5.2 2.5 1.5 3.6 4.5 1.4 4.5 3.1 5.3 5.2 2.8.7-.8 1.9-1.5 2.6-1.5.8 0 1.4-1 1.4-2.3 0-1.7-1.2-2.9-5.2-5-2.9-1.4-6.6-2.9-8.2-3.3-2.5-.6-2.8-.4-2.3 1zM807.7 988.3c-1.5 1.5-1.8 2.7-1.3 5.6.3 2 .6 4.1.6 4.7 0 1.7 4.7 3.4 7 2.6 1.2-.4 2.7-1.9 3.4-3.2.7-1.4 1.8-2.4 2.4-2.3 1.8.4 1.4-1.4-.4-2.1-.8-.3-1.3-.9-1.1-1.4.3-.4-.1-1.8-.9-3.2-.7-1.4-1.3-2.1-1.4-1.6 0 .5-.6.4-1.2-.1-2-1.6-4.9-1.2-7.1 1zM621.8 999.7c.7.3 1.6.2 1.9-.1.4-.3-.2-.6-1.3-.5-1.1 0-1.4.3-.6.6zM619.2 1003c-1.8 2.9 0 5.9 3.1 5.3 2.2-.4 5.7-4.7 4.6-5.7-.2-.2-1.7-.7-3.4-1-2.4-.5-3.3-.2-4.3 1.4zM669.6 1035.1c-1.5 1.1-3.3 1.9-4 1.6-.8-.3-2.9 1-4.7 2.9-3.3 3.4-3.5 3.5-10.9 3.3-4.1-.1-8.4.1-9.5.4-1.1.3-3.6 1.1-5.5 1.6-1.9.6-4.6 1.1-6 1.1-1.4 0-4.3.9-6.5 2s-4.6 2-5.5 2c-1.9 0-6 2.8-6 4.1 0 .5 2.5.9 5.6.9 5.5 0 8.4-.6 18.8-3.6 2.6-.8 7.6-1.4 11-1.4 5.9 0 11.7-1.3 18.1-4.1 1.7-.7 6.6-1.4 11-1.5 9-.3 31.3-2.9 32.2-3.8 1.8-1.8-5.8-3.5-15.8-3.6-4.2 0-7.9-.3-8.3-.7-.9-.9-7.8-3.3-9.7-3.3-.9 0-2.8.9-4.3 2.1zM744.5 1039c-.3.5 0 1 .7 1 1 0 .9.3-.2 1-1.3.8-1.3.9 0 1.4.8.2 3 .9 4.9 1.5 4 1.3 4 1.3 4.3-2 .2-1.8-.2-2.4-1.4-2.3-1 .1-1.8-.2-1.8-.7 0-1.2-5.7-1.1-6.5.1zM726.7 1039.6c-1.1 1.1.3 2.4 2.4 2.4 1.1 0 1.8-.4 1.4-.9-.3-.5.5-1.2 1.7-1.4 1.5-.3 1.1-.5-1.3-.6-2 0-3.9.2-4.2.5zM596.7 1057.4c-5.4 1.2-8.7 2.9-7.6 4.1.6.5 15.5-2.2 17-3.1 1.4-.8 0-2.4-1.9-2.3-.9 0-4.3.6-7.5 1.3zM575.9 1064.1c-1.3 1-3.4 1.9-4.5 1.9-4.4 0-9.2 3-12.3 7.5-3 4.4-3 4.6-.8 4.2 1.2-.2 4.1-1.3 6.4-2.5 2.3-1.2 5-2.2 6-2.2 1.1 0 3.4-1.3 5.3-3 1.9-1.6 4.2-2.9 5.1-3 1.7 0 4.9-3 3.3-3-.5 0-.3-.4.4-.9.9-.5 0-.8-2.6-.8-2.3 0-4.9.7-6.3 1.8zM548.5 1079.1c-.5.6-4.1 3.2-8 6-7.6 5.4-11.5 11-11.5 16.7 0 4.5 7.3 12.6 10.4 11.6 3.2-1 3.5-2.2 3.3-10.4-.2-6.3.2-8.2 2.2-11.8 1.4-2.3 2.8-4.2 3.2-4.2.9 0 4.9-6.4 4.9-7.9 0-1.4-3.1-1.4-4.5 0zM799.5 1108c.3.5.8 1 1.1 1 .2 0 .4-.5.4-1 0-.6-.5-1-1.1-1-.5 0-.7.4-.4 1zM878.5 1197c-.4.6.5 1 1.9 1s2.6-.5 2.6-1c0-.6-.9-1-1.9-1-1.1 0-2.3.4-2.6 1zM1543.5 1355c-3.8 1.6-7.3 2.6-7.7 2.4-.5-.3-.8.6-.8 2.1 0 1.8.9 3.1 3.3 4.5 4.7 2.9 7.8 2.5 11.6-1.4 2.6-2.6 3.2-4 2.9-6.6-.2-1.9-.7-3.4-1.3-3.6-.5-.1-4.1 1.1-8 2.6zM573.4 1376.4c-.9 3.7 2 8.2 6.1 9.6 2.2.7 4.1 2.3 5 4.1 1.7 3.1 2.6 3.5 5.6 1.9 2.7-1.5 2.4-2.7-1.4-4.5-2.5-1.2-3.7-2.8-5.5-7.5-2.2-5.7-2.5-6-5.8-6-2.7 0-3.5.5-4 2.4zM579.9 1403c-2.4 1.6-4.9 3-5.5 3-1.6 0-7.4 6.7-7.4 8.5 0 1.1 1.2 1.5 4.4 1.5 4.9 0 6.2 1.1 6.9 5.8.3 1.9.8 3.6 1.1 3.9 1 1.1 2.8-1 2.3-2.8-.3-1.1-.1-1.9.4-1.9s.9-.6.9-1.3c0-1.9 6.4-4.4 12.9-5.1 2.9-.3 5.6-.7 5.8-1 .2-.2.1-1.5-.2-2.8-.6-2.3-5-4.8-8.4-4.8-.7 0-3-1.3-5.1-3l-3.7-3-4.4 3zM839.4 1403.8c.6 1 0 1.2-2.7.7-3.7-.7-10.7 1-10.7 2.6 0 1.2 4.4 1.1 10.9-.4 4.9-1.2 5.2-1.4 3.5-2.7-1.2-1.1-1.5-1.1-1-.2zM673.1 1410.9c-1.1 1.9-1 2.6.3 3.9 1.3 1.4 1.6 1.4 2.1.1.3-.9.2-2.6-.3-3.9l-.9-2.4-1.2 2.3zM693 1412.5c0 1.4.5 2.5 1 2.5.6 0 1-1.1 1-2.5s-.4-2.5-1-2.5c-.5 0-1 1.1-1 2.5zM567.5 1427.9c-2.3 2.2 3.7 10.1 7.7 10.1 2.9 0 5.1-1.9 3.9-3.4-.5-.6-1.1-2.2-1.3-3.6-.3-2.2-.9-2.6-5.1-3-2.6-.4-5-.4-5.2-.1zM739.3 1442.7c-.7.3-1.3 1.2-1.3 2.2 0 1-2.7 5.3-6 9.7-5.8 7.7-6 8.1-6 14.1 0 5.4.3 6.4 2.5 8.1 1.5 1.2 3.4 1.8 4.5 1.5 2-.5 2.8-2.3 1-2.3-1.5 0-1.2-1.6 1.2-6.8 1.2-2.6 2.2-5.1 2.2-5.5.1-.5.9-1.4 1.8-2.1 1.2-.9 1.8-3.5 2.4-9.8.6-8.3.2-10-2.3-9.1zM602.1 1455.7c-.1 3.7.3 6.3.9 6.3 1.8 0 2-2.4.6-7.5l-1.4-5-.1 6.2zM664 1462.5c0 1.1-1.1 1.5-4 1.5-3.9 0-4 .1-4 3.5 0 3.8 2.4 9.5 4 9.5s4-5.7 4-9.5c0-1.9.5-3.5 1-3.5.6 0 1-.7 1-1.5s-.4-1.5-1-1.5c-.5 0-1 .7-1 1.5zM753.6 1465.9c-.7 1.1.3 4.1 1.4 4.1 1.1 0 1.8-2.2 1.2-3.8-.5-1.4-1.8-1.6-2.6-.3zM659 1481c0 .5.4 1 .9 1 .6 0 1.3-.5 1.6-1 .3-.6-.1-1-.9-1-.9 0-1.6.4-1.6 1zM653 1487.7c-3.1 1.2-4 5-1.5 5.9 2.4 1 4.7-1.4 3.5-3.6-.7-1.3-.6-2 .3-2.3 1.7-.7-.5-.7-2.3 0zM613.2 1491.1c.2.6.8 1 1.3 1s1.1-.4 1.3-1c.2-.6-.4-1.1-1.3-1.1s-1.5.5-1.3 1.1zM617.9 1508.3c-1.4 3.1.4 7.7 3 7.7s3.6-3.4 2.1-7.1c-1.5-3.5-3.7-3.8-5.1-.6z"/></svg>