<?xml version="1.0" standalone="no"?>
<!DOCTYPE svg PUBLIC "-//W3C//DTD SVG 20010904//EN"
 "http://www.w3.org/TR/2001/REC-SVG-20010904/DTD/svg10.dtd">
<svg version="1.0" xmlns="http://www.w3.org/2000/svg"
 width="2648.000000pt" height="2648.000000pt" viewBox="0 0 2648.000000 2648.000000"
 preserveAspectRatio="xMidYMid meet">
<metadata>
Created by potrace 1.11, written by Peter Selinger 2001-2013
</metadata>
<g transform="translate(0.000000,2648.000000) scale(0.100000,-0.100000)"
fill="#000000" stroke="none">
<path d="M0 13240 l0 -13240 13240 0 13240 0 0 13240 0 13240 -13240 0 -13240
0 0 -13240z m17430 8846 c74 -11 229 -62 261 -86 15 -10 42 -25 61 -33 49 -21
196 -155 220 -200 11 -22 32 -57 48 -79 16 -21 33 -62 39 -89 6 -28 16 -60 23
-72 18 -35 29 -223 17 -297 -10 -66 -40 -188 -65 -270 -7 -25 -23 -79 -35
-120 -12 -41 -27 -93 -34 -115 -7 -22 -23 -74 -35 -115 -12 -41 -31 -106 -42
-145 -12 -38 -27 -88 -34 -110 -7 -22 -22 -74 -34 -115 -13 -41 -30 -100 -40
-130 -10 -30 -25 -80 -34 -110 -8 -30 -22 -77 -31 -105 -21 -69 -21 -67 30
-81 26 -6 58 -20 73 -31 15 -11 48 -29 75 -41 59 -26 192 -160 219 -220 11
-24 30 -59 43 -78 13 -19 28 -57 34 -85 6 -28 16 -60 23 -72 10 -19 31 -171
30 -222 -1 -93 -23 -295 -41 -390 -16 -81 -31 -166 -41 -230 -5 -33 -17 -98
-26 -145 -9 -47 -20 -105 -24 -130 -4 -25 -20 -108 -35 -185 -14 -77 -28 -156
-31 -175 -3 -19 -9 -48 -14 -65 -4 -16 -14 -61 -20 -100 -7 -38 -16 -90 -22
-115 -5 -25 -13 -67 -17 -95 -8 -50 -29 -155 -57 -290 -32 -158 -56 -282 -60
-315 -2 -19 -11 -64 -19 -100 -9 -36 -18 -75 -21 -87 l-4 -23 -4545 0 c-4500
0 -4544 0 -4550 20 -8 26 -22 102 -55 305 -4 28 -15 88 -24 135 -10 47 -21
110 -26 140 -5 30 -14 82 -19 115 -6 33 -15 88 -21 123 -5 34 -15 90 -20 125
-6 34 -15 89 -20 122 -5 33 -14 87 -20 120 -23 124 -31 172 -39 225 -5 30 -16
93 -25 140 -10 47 -21 111 -27 143 -5 31 -13 83 -19 115 -38 226 -50 304 -61
372 -5 36 -14 85 -20 110 -13 60 -31 271 -24 290 3 8 10 47 15 87 5 40 19 92
30 115 12 24 30 66 41 93 27 71 155 203 234 243 33 16 74 37 90 46 17 9 44 19
61 22 30 5 31 8 24 37 -4 18 -21 73 -37 122 -17 50 -43 131 -58 180 -15 50
-33 108 -40 130 -7 22 -23 74 -35 115 -13 41 -31 100 -41 130 -9 30 -25 82
-34 115 -10 33 -26 85 -35 115 -10 30 -25 82 -34 115 -9 33 -25 89 -36 125
-82 284 -96 435 -56 596 14 52 33 107 43 123 81 126 145 201 172 201 4 0 28
16 52 35 24 20 69 43 99 51 30 9 67 23 82 30 69 35 138 37 1438 43 1972 9
7098 7 7160 -3z m97 -6009 c26 -24 67 -61 90 -83 98 -93 133 -121 201 -164 49
-31 71 -51 72 -65 0 -11 6 -49 14 -85 21 -91 47 -226 56 -285 4 -27 20 -111
35 -185 15 -74 31 -155 35 -180 7 -40 49 -258 70 -365 4 -22 17 -94 29 -160
12 -66 26 -134 31 -151 6 -16 12 -48 15 -70 7 -62 44 -257 61 -324 8 -34 13
-64 10 -67 -3 -3 -1 -13 4 -22 4 -9 13 -53 19 -96 6 -44 20 -115 30 -157 18
-71 18 -85 5 -175 -8 -54 -23 -120 -33 -148 -11 -27 -22 -65 -26 -83 -4 -18
-21 -52 -39 -75 -17 -23 -44 -63 -59 -89 -15 -26 -41 -57 -58 -69 -17 -12 -47
-39 -67 -60 -40 -42 -220 -139 -257 -139 -23 0 -23 0 -8 -52 14 -51 45 -167
59 -218 4 -14 18 -63 32 -110 13 -47 29 -103 35 -125 13 -49 72 -261 92 -330
7 -27 24 -86 36 -130 11 -44 28 -102 36 -130 18 -63 36 -129 64 -230 11 -44
28 -102 36 -130 14 -51 29 -103 58 -210 9 -33 25 -91 36 -130 11 -38 27 -92
34 -120 8 -27 24 -84 35 -125 11 -41 27 -99 35 -127 8 -29 22 -77 30 -105 32
-119 57 -206 71 -258 9 -30 22 -77 29 -105 8 -27 24 -84 35 -125 38 -137 50
-180 64 -232 8 -29 22 -78 32 -108 9 -30 21 -71 25 -90 4 -19 18 -69 29 -110
12 -41 27 -97 35 -125 8 -27 21 -75 30 -105 9 -30 24 -86 35 -125 10 -38 29
-108 43 -155 13 -47 27 -96 31 -110 32 -119 48 -177 70 -255 14 -49 33 -115
41 -145 8 -30 31 -111 50 -180 19 -69 42 -152 51 -185 9 -33 25 -89 35 -125
118 -403 166 -648 205 -1045 18 -186 15 -610 -4 -715 -6 -30 -18 -98 -27 -150
-26 -153 -126 -464 -165 -515 -4 -5 -36 -64 -70 -130 -34 -66 -69 -127 -76
-136 -8 -8 -14 -19 -14 -24 0 -7 -86 -137 -159 -242 -105 -148 -309 -362 -456
-476 -158 -123 -245 -178 -403 -258 -149 -74 -231 -107 -372 -149 -41 -12 -91
-27 -110 -33 -19 -6 -55 -14 -80 -18 -25 -3 -85 -14 -135 -22 -93 -17 -155
-23 -310 -33 -49 -3 -569 -6 -1155 -6 -1600 0 -3774 0 -4970 0 -586 0 -1105 3
-1155 6 -155 10 -217 16 -310 33 -49 8 -110 19 -135 22 -25 4 -61 12 -80 18
-19 6 -69 21 -110 33 -141 42 -223 75 -372 149 -158 80 -245 135 -403 258
-147 114 -351 328 -456 476 -73 105 -159 235 -159 242 0 5 -6 16 -14 24 -7 9
-42 70 -76 136 -34 66 -66 125 -70 130 -39 51 -139 362 -165 515 -9 52 -21
120 -27 150 -19 105 -22 529 -4 715 24 247 51 428 89 600 41 180 60 255 116
445 10 36 26 92 35 125 9 33 32 116 51 185 19 69 42 150 50 180 8 30 27 96 41
145 22 78 38 136 70 255 4 14 18 63 31 110 14 47 33 117 43 155 11 39 26 95
35 125 9 30 22 78 30 105 8 28 23 84 35 125 11 41 25 91 29 110 4 19 16 60 25
90 10 30 24 79 32 108 14 52 26 95 64 232 11 41 27 98 35 125 7 28 20 75 29
105 8 30 25 89 36 130 11 41 28 100 36 130 9 30 22 78 29 105 8 28 24 84 35
125 11 41 27 98 35 125 7 28 23 82 34 120 11 39 27 97 36 130 29 107 44 159
58 210 8 28 25 86 36 130 28 101 46 167 64 230 8 28 25 86 36 130 12 44 29
103 36 130 20 69 79 281 92 330 6 22 22 81 37 130 14 50 33 117 42 150 9 33
25 89 35 125 10 36 19 73 21 82 2 12 -24 30 -97 68 -55 29 -120 70 -145 92
-25 23 -60 54 -78 70 -18 17 -40 44 -49 61 -8 17 -22 37 -30 45 -28 28 -42 58
-73 152 -57 169 -65 262 -36 405 10 50 22 113 26 140 4 28 14 84 22 125 9 41
21 109 27 150 7 41 16 95 22 120 6 25 13 65 15 89 2 24 7 48 10 52 3 5 9 34
15 64 5 30 14 81 20 113 5 31 14 84 19 117 6 33 17 96 25 140 9 44 20 103 25
130 5 28 14 75 20 105 5 30 14 82 19 115 6 33 17 98 26 145 10 47 21 108 26
135 4 28 13 75 19 105 6 30 15 80 20 110 5 30 16 93 25 140 9 47 17 92 17 100
0 8 6 42 13 75 8 33 19 90 26 128 l13 67 4378 0 4377 0 48 -43z"/>
<path d="M13031 10054 c-1960 -337 -3566 -615 -3568 -617 -2 -2 -154 -512
-338 -1133 -183 -621 -341 -1148 -349 -1172 -9 -24 -27 -96 -40 -161 -86 -404
-45 -790 111 -1056 28 -49 82 -117 142 -178 225 -233 460 -362 741 -407 42 -7
677 -15 1803 -22 1914 -11 5155 2 5277 22 281 45 516 174 741 407 148 153 223
299 269 524 57 279 30 604 -77 924 -26 77 -286 892 -578 1810 -460 1446 -534
1670 -550 1672 -11 1 -1624 -275 -3584 -613z"/>
</g>
</svg>
